<svg width="2131" height="1221" viewBox="0 0 2131 1221" fill="none" xmlns="http://www.w3.org/2000/svg">
<path d="M2121.34 265.1C2078.04 150.8 1945.24 206.4 1800.04 265.1C1723.34 296.1 1650.04 308.1 1593.84 295.7C1581.94 293.1 1570.84 289.3 1560.64 284.4C1560.64 284.4 1560.54 284.4 1560.54 284.5C1527.64 268.8 1504.04 241.3 1494.04 200.2C1466.24 85.9001 1481.64 -16.0999 1240.64 55C1176.64 73.9 1071.84 100.8 950.336 131.1C929.936 136.2 909.037 141.4 887.837 146.6C559.637 227.7 146.337 325.8 69.6365 357.8C-20.0635 395.2 -5.26346 452.6 45.8365 644.9C46.4365 647.2 47.0365 649.4 47.6365 651.7C59.5365 696.5 73.3365 748.4 88.1365 808.9C95.2365 837.7 101.237 865.1 106.637 891C108.137 898.2 109.637 905.3 111.037 912.3C161.937 1165.6 152.037 1269.5 387.837 1198.2C438.037 1183 503.037 1164.7 576.637 1144.5C589.037 1141.1 601.737 1137.7 614.637 1134.2C782.937 1088.6 987.337 1035.6 1159.54 990.6C1160.04 990.5 1160.54 990.3 1161.04 990.2C1163.34 989.6 1165.64 989 1167.94 988.4C1169.04 988.1 1170.04 987.8 1171.14 987.6C1173.54 987 1175.84 986.4 1178.14 985.8C1179.24 985.5 1180.44 985.2 1181.54 984.9C1321.64 948.3 1437.74 917.6 1491.04 901.6C1645.54 855.3 1664.04 821.3 1648.64 759.5C1637.14 713.3 1620.44 653.4 1617.84 605.4C1617.74 604.1 1617.74 602.9 1617.64 601.6C1617.64 601.4 1617.64 601.3 1617.64 601.1C1617.34 591.6 1617.64 582.7 1618.64 574.5C1618.64 574.5 1618.64 574.5 1618.54 574.6C1619.04 570.1 1619.84 565.8 1620.84 561.8C1634.94 505.3 1710.84 468 1796.04 449.2C1796.04 449.2 1795.94 449.2 1795.94 449.3C1817.04 444.6 1838.74 441.1 1860.24 438.8C1860.24 438.8 1860.24 438.8 1860.34 438.8C1887.44 435.8 1914.24 434.6 1939.04 435.2C2062.54 438.1 2162.44 373.9 2121.34 265.1ZM2008.04 354.3C2005.54 354.3 2003.04 354.1 2000.64 353.7C2000.64 353.7 2000.64 353.7 2000.74 353.7C1989.84 351.9 1980.14 346.4 1973.04 338.4C1965.64 330.1 1961.04 319.2 1961.04 307.3C1961.04 281.7 1982.44 260.3 2008.04 260.3C2028.64 260.3 2046.54 274.2 2052.74 293C2053.64 295.7 2054.24 298.5 2054.64 301.3C2054.64 301.5 2054.74 301.8 2054.74 302C2054.74 302.4 2054.84 302.7 2054.84 303.1C2054.84 303.5 2054.94 303.9 2054.94 304.3C2054.94 304.6 2054.94 304.9 2055.04 305.1C2055.04 305.8 2055.14 306.5 2055.14 307.2C2055.14 308 2055.14 308.7 2055.04 309.5C2055.04 310.2 2054.94 310.9 2054.84 311.7C2054.84 311.7 2054.84 311.7 2054.84 311.8C2054.34 316.3 2053.24 320.6 2051.64 324.6C2044.64 341.9 2027.54 354.3 2008.04 354.3Z" fill="#F68638"/>
<path d="M2116.34 233.8C2073.04 119.5 1940.24 175.1 1795.04 233.8C1649.84 292.5 1516.94 283.2 1489.14 168.9C1461.34 54.6 1476.74 -47.4 1235.74 23.7C994.736 94.8 175.936 280.1 64.7365 326.5C-46.4635 372.9 2.93649 450.1 83.2365 777.6C163.536 1105.1 117.236 1247.3 382.936 1166.9C648.636 1086.6 1331.54 916.6 1486.04 870.3C1640.54 824 1659.04 790 1643.64 728.2C1628.24 666.4 1603.44 579.9 1615.84 530.4C1637.84 442.2 1810.54 400.6 1934.14 403.7C2057.74 406.8 2157.54 342.6 2116.34 233.8ZM2003.04 323C1977.44 323 1956.04 301.6 1956.04 276C1956.04 250.4 1977.44 229 2003.04 229C2028.64 229 2050.04 250.4 2050.04 276C2050.14 301.6 2028.74 323 2003.04 323Z" fill="#FCB85E"/>
<path d="M42.7365 620.4C119.737 530.5 200.837 444.1 286.237 361.9C335.637 314.3 386.537 268.7 438.537 224.5C421.637 228.7 405.137 232.8 388.837 236.9C262.937 348.6 145.337 470.5 36.9365 598.7C38.8365 605.7 40.7365 613 42.7365 620.4Z" fill="#F89C4F"/>
<path d="M570.636 411.5C690.336 301.1 815.336 197 945.436 99.8C925.036 104.9 904.136 110.1 882.936 115.3C597.836 333.5 342.436 593.3 101.836 859.7C103.336 866.9 104.836 874 106.236 881C255.236 718.9 408.636 560.8 570.636 411.5Z" fill="#F89C4F"/>
<path d="M1437.74 22.3C1431.44 16.7 1423.94 12.1 1415.14 8.5C1216.04 157.7 1025.54 319.1 842.436 486.3C610.836 697.7 392.436 923.2 187.136 1160.1C191.336 1164.4 195.836 1168.2 200.736 1171.6C571.036 746.1 986.936 361.9 1437.74 22.3Z" fill="#F89C4F"/>
<path d="M1555.64 253.1C1414.74 352.1 1279.54 459.5 1149.14 570.2C947.536 741.3 757.036 924.7 571.636 1113.2C584.036 1109.8 596.736 1106.4 609.636 1102.9C778.436 934.2 951.537 769.9 1132.94 614.7C1279.34 489.4 1431.24 372.9 1588.84 264.4C1577.04 261.8 1565.94 258 1555.64 253.1Z" fill="#F89C4F"/>
<path d="M1612.84 574.1C1612.24 563 1612.44 552.7 1613.64 543.2C1587.04 563.1 1560.64 583.3 1534.64 603.9C1398.44 711.6 1270.84 830.3 1154.64 959.3C1168.84 955.6 1182.84 951.9 1196.54 948.4C1303.84 832.8 1420.44 725.8 1543.94 627.3C1566.64 609.2 1589.64 591.5 1612.84 574.1Z" fill="#F89C4F"/>
<path d="M2121.94 251.8C2120.54 245.9 2118.64 239.9 2116.34 233.8C2115.34 231.2 2114.24 228.8 2113.24 226.4C2091.34 237.9 2069.44 249.7 2047.84 261.7C2049.34 266.2 2050.14 271.1 2050.14 276C2050.14 282.1 2048.94 287.9 2046.74 293.3C2071.64 279.3 2096.74 265.4 2121.94 251.8Z" fill="#F89C4F"/>
<path d="M1968.04 307C1907.94 342.3 1848.94 379.3 1790.94 417.8C1812.04 413.1 1833.74 409.6 1855.24 407.3C1901.54 378.1 1948.34 349.8 1995.74 322.4C1984.94 320.6 1975.14 315 1968.04 307Z" fill="#F89C4F"/>
</svg>
