<svg width="1175" height="634" viewBox="0 0 1175 634" fill="none" xmlns="http://www.w3.org/2000/svg">
<path d="M847 124.8C847 181 823.3 342.5 631.5 342.5C439.7 342.5 416 181 416 124.8C416 68.5999 512.5 23 631.5 23C750.5 23 847 68.5999 847 124.8Z" fill="url(#paint0_linear)"/>
<path d="M798.7 124.8C798.7 181 780.3 342.5 631.5 342.5C482.7 342.5 464.3 181 464.3 124.8C464.3 68.5999 539.2 23 631.5 23C723.8 23 798.7 68.5999 798.7 124.8Z" fill="url(#paint1_linear)"/>
<path d="M733.7 124.8C733.7 181 722.5 342.5 631.5 342.5C540.5 342.5 529.3 181 529.3 124.8C529.3 68.5999 575.1 23 631.5 23C687.9 23 733.7 68.5999 733.7 124.8Z" fill="url(#paint2_linear)"/>
<path d="M631.5 226.6C750.517 226.6 847 181.023 847 124.8C847 68.5773 750.517 23 631.5 23C512.483 23 416 68.5773 416 124.8C416 181.023 512.483 226.6 631.5 226.6Z" fill="url(#paint3_linear)"/>
<path d="M631.5 215.5C737.484 215.5 823.4 174.892 823.4 124.8C823.4 74.7077 737.484 34.1 631.5 34.1C525.517 34.1 439.6 74.7077 439.6 124.8C439.6 174.892 525.517 215.5 631.5 215.5Z" fill="url(#paint4_radial)"/>
<path d="M631.5 196.2C592 196.2 554.8 188.9 526.8 175.7C498.3 162.2 482.6 144.2 482.6 124.8C482.6 105.4 498.3 87.4 526.8 73.9C554.8 60.7 592 53.4 631.5 53.4C671 53.4 708.2 60.7 736.2 73.9C764.7 87.4 780.4 105.4 780.4 124.8C780.4 144.2 764.7 162.2 736.2 175.7C708.2 188.9 671 196.2 631.5 196.2ZM631.5 57.4C551.6 57.4 486.7 87.5999 486.7 124.8C486.7 162 551.7 192.2 631.5 192.2C711.4 192.2 776.3 162 776.3 124.8C776.3 87.5999 711.4 57.4 631.5 57.4Z" fill="url(#paint5_radial)"/>
<path d="M631.5 172C605.7 172 581.4 167.2 563.1 158.6C544.3 149.7 534 137.7 534 124.9C534 112.1 544.3 100 563.1 91.2C581.4 82.6 605.7 77.7999 631.5 77.7999C657.3 77.7999 681.6 82.6 699.9 91.2C718.7 100.1 729 112.1 729 124.9C729 137.7 718.7 149.8 699.9 158.6C681.6 167.2 657.3 172 631.5 172ZM631.5 81.7C579.9 81.7 538 101.1 538 124.8C538 148.5 580 167.9 631.5 167.9C683.1 167.9 725 148.5 725 124.8C725 101.1 683.1 81.7 631.5 81.7Z" fill="url(#paint6_radial)"/>
<path d="M631.5 152.2C600.3 152.2 575.8 140.2 575.8 124.8C575.8 109.4 600.3 97.4 631.5 97.4C662.7 97.4 687.2 109.4 687.2 124.8C687.2 140.2 662.7 152.2 631.5 152.2ZM631.5 101.5C603.5 101.5 579.8 112.2 579.8 124.9C579.8 137.6 603.5 148.3 631.5 148.3C659.5 148.3 683.2 137.6 683.2 124.9C683.2 112.2 659.5 101.5 631.5 101.5Z" fill="url(#paint7_radial)"/>
<path d="M468.3 110.6C468.3 171.7 442.6 347.1 234.2 347.1C25.8001 347.1 0.100098 171.7 0.100098 110.6C0.100098 49.5 104.9 0 234.2 0C363.5 0 468.3 49.5 468.3 110.6Z" fill="url(#paint8_linear)"/>
<path d="M415.7 110.6C415.7 171.7 395.7 347.1 234.1 347.1C72.5 347.1 52.5 171.7 52.5 110.6C52.5 49.5 133.8 0 234.1 0C334.4 0 415.7 49.5 415.7 110.6Z" fill="url(#paint9_linear)"/>
<path d="M345.1 110.6C345.1 171.7 332.9 347.1 234.1 347.1C135.3 347.1 123.1 171.7 123.1 110.6C123.1 49.5 172.8 0 234.1 0C295.4 0 345.1 49.5 345.1 110.6Z" fill="url(#paint10_linear)"/>
<path d="M234.1 221.2C363.39 221.2 468.2 171.683 468.2 110.6C468.2 49.5173 363.39 0 234.1 0C104.81 0 0 49.5173 0 110.6C0 171.683 104.81 221.2 234.1 221.2Z" fill="url(#paint11_linear)"/>
<path d="M234.1 209.1C349.196 209.1 442.5 165 442.5 110.6C442.5 56.1999 349.196 12.1 234.1 12.1C119.004 12.1 25.7002 56.1999 25.7002 110.6C25.7002 165 119.004 209.1 234.1 209.1Z" fill="url(#paint12_radial)"/>
<path d="M234.1 188C191.2 188 150.8 180.1 120.4 165.7C89.5 151.1 72.5 131.5 72.5 110.6C72.5 89.7 89.5 70.1 120.4 55.5C150.8 41.1 191.2 33.2001 234.1 33.2001C277 33.2001 317.4 41.1 347.8 55.5C378.7 70.1 395.7 89.7 395.7 110.6C395.7 131.5 378.7 151.1 347.8 165.7C317.4 180.1 277 188 234.1 188ZM234.1 37.2001C147.2 37.2001 76.6 70.1 76.6 110.6C76.6 151.1 147.3 184 234.1 184C321 184 391.6 151.1 391.6 110.6C391.6 70.1 321 37.2001 234.1 37.2001Z" fill="url(#paint13_radial)"/>
<path d="M234.1 161.6C206.1 161.6 179.7 156.4 159.9 147C139.6 137.4 128.4 124.4 128.4 110.5C128.4 96.6 139.6 83.6 159.9 74C179.8 64.6 206.1 59.4 234.1 59.4C262.1 59.4 288.5 64.6 308.3 74C328.6 83.6 339.8 96.6 339.8 110.5C339.8 124.4 328.6 137.4 308.3 147C288.5 156.5 262.1 161.6 234.1 161.6ZM234.1 63.6C178 63.6 132.3 84.7 132.3 110.6C132.3 136.5 178 157.6 234.1 157.6C290.2 157.6 335.9 136.5 335.9 110.6C335.9 84.7 290.2 63.6 234.1 63.6Z" fill="url(#paint14_radial)"/>
<path d="M234.1 140.1C200.3 140.1 173.8 127.1 173.8 110.5C173.8 93.9 200.3 80.9 234.1 80.9C267.9 80.9 294.4 93.9 294.4 110.5C294.4 127.1 267.9 140.1 234.1 140.1ZM234.1 85C203.6 85 177.8 96.7 177.8 110.6C177.8 124.5 203.6 136.2 234.1 136.2C264.6 136.2 290.4 124.5 290.4 110.6C290.4 96.7 264.6 85 234.1 85Z" fill="url(#paint15_radial)"/>
<path d="M639.674 341.305C631.474 390.205 587.474 527.105 420.674 499.205C253.874 471.305 256.774 327.505 264.974 278.605C273.174 229.705 363.674 204.105 467.174 221.405C570.574 238.805 647.874 292.505 639.674 341.305Z" fill="url(#paint16_linear)"/>
<path d="M597.673 334.305C589.473 383.205 550.073 520.905 420.673 499.305C291.273 477.705 298.773 334.605 306.973 285.705C315.173 236.805 386.873 208.005 467.073 221.505C547.373 234.905 605.873 285.405 597.673 334.305Z" fill="url(#paint17_linear)"/>
<path d="M541.174 324.905C532.974 373.805 499.774 512.505 420.674 499.305C341.574 486.105 355.274 344.105 363.474 295.205C371.674 246.305 418.074 213.305 467.074 221.505C516.174 229.705 549.374 276.005 541.174 324.905Z" fill="url(#paint18_linear)"/>
<path d="M639.674 341.305C631.474 390.205 540.974 415.805 437.474 398.505C333.974 381.205 256.774 327.505 264.874 278.605C273.074 229.705 363.574 204.105 467.074 221.405C570.574 238.805 647.874 292.505 639.674 341.305Z" fill="url(#paint19_linear)"/>
<path d="M619.074 337.905C611.774 381.405 531.274 404.205 439.074 388.805C346.974 373.405 278.174 325.605 285.474 282.105C292.774 238.605 373.274 215.805 465.474 231.205C557.674 246.605 626.374 294.405 619.074 337.905Z" fill="url(#paint20_radial)"/>
<path d="M485.374 376.005C471.274 376.005 456.574 374.805 441.874 372.305C407.474 366.605 376.174 354.805 353.774 339.205C330.874 323.305 319.874 305.205 322.674 288.305C324.874 274.905 335.674 263.605 353.674 255.605C370.974 248.005 393.574 243.905 419.274 243.905C433.374 243.905 448.074 245.105 462.774 247.605C497.174 253.305 528.474 265.105 550.874 280.705C573.774 296.605 584.774 314.705 581.974 331.605C579.774 345.005 568.974 356.305 550.974 364.305C533.674 372.005 510.974 376.005 485.374 376.005ZM419.274 248.005C367.974 248.005 330.774 264.505 326.674 289.005C324.074 304.305 334.574 321.005 356.074 335.905C378.074 351.205 408.774 362.705 442.574 368.305C457.074 370.705 471.474 372.005 485.374 372.005C536.674 372.005 573.874 355.505 577.974 331.005C583.374 298.805 531.374 263.205 462.074 251.605C447.574 249.205 433.174 248.005 419.274 248.005Z" fill="url(#paint21_radial)"/>
<path d="M473.874 353.705C464.674 353.705 455.073 352.905 445.473 351.305C422.973 347.505 402.574 339.905 387.874 329.705C372.774 319.205 365.473 307.205 367.373 295.905C370.273 278.305 395.874 266.505 430.874 266.505C440.074 266.505 449.673 267.305 459.273 268.905C481.773 272.705 502.174 280.305 516.874 290.505C531.974 301.005 539.274 313.005 537.374 324.305C534.374 341.805 508.874 353.705 473.874 353.705ZM430.773 270.405C397.773 270.405 373.874 280.905 371.174 296.505C369.574 306.205 376.273 316.805 390.073 326.305C404.273 336.205 424.173 343.605 446.073 347.305C455.473 348.905 464.774 349.705 473.874 349.705C506.874 349.705 530.773 339.205 533.473 323.605C536.873 303.005 503.374 280.305 458.674 272.805C449.174 271.205 439.773 270.405 430.773 270.405Z" fill="url(#paint22_radial)"/>
<path d="M464.374 335.405C459.174 335.405 453.673 334.905 448.273 334.005C420.973 329.405 401.374 315.305 403.674 301.805C405.474 291.305 419.774 284.505 440.174 284.505C445.374 284.505 450.873 285.005 456.273 285.905C483.573 290.505 503.174 304.605 500.874 318.105C499.174 328.605 484.874 335.405 464.374 335.405ZM440.174 288.605C422.374 288.605 408.973 294.305 407.573 302.505C405.773 313.405 424.674 326.005 448.874 330.105C454.074 331.005 459.274 331.405 464.374 331.405C482.174 331.405 495.573 325.705 496.973 317.505C498.773 306.605 479.874 294.005 455.674 289.905C450.474 289.105 445.274 288.605 440.174 288.605Z" fill="url(#paint23_radial)"/>
<path d="M996.2 343.4C1071.3 343.4 1133.9 368.4 1148.9 401.8C1152.7 395.4 1154.8 388.7 1154.8 381.7C1154.8 340.9 1084.9 307.9 998.6 307.9C912.4 307.9 842.4 340.9 842.4 381.7C842.4 387 843.6 392.1 845.8 397.1C864.5 366.1 924.8 343.4 996.2 343.4Z" fill="url(#paint24_radial)"/>
<path d="M1168.3 386.7C1160.5 372.9 1145.3 360.4 1124.8 350.5C1131.2 360.1 1134.8 370.7 1134.8 381.7C1134.8 400.8 1132.2 434.7 1120.4 467.8C1143.5 457.3 1160.5 443.8 1168.7 428.6C1172.3 412.5 1173.7 397.8 1174.1 386.7H1168.3V386.7Z" fill="url(#paint25_linear)"/>
<path d="M872.6 350.5C852.1 360.5 836.9 372.9 829.1 386.7H823.6V393.6C824.2 403.6 825.7 415.7 828.7 428.7C836.9 443.8 853.9 457.3 877 467.8C865.2 434.7 862.6 400.8 862.6 381.7C862.6 370.6 866.2 360.1 872.6 350.5Z" fill="url(#paint26_linear)"/>
<path d="M1124.8 350.5C1108 342.3 1087.6 335.7 1064.7 331.3C1075.5 345.3 1081.9 362.7 1081.9 381.7C1081.9 403.9 1079.7 446.3 1069.1 484.1C1088.2 480.1 1105.6 474.6 1120.4 467.8C1132.2 434.7 1134.8 400.8 1134.8 381.7C1134.8 370.6 1131.2 360.1 1124.8 350.5Z" fill="url(#paint27_linear)"/>
<path d="M1124.8 350.5C1108 342.3 1087.6 335.7 1064.7 331.3C1075.5 345.3 1081.9 362.7 1081.9 381.7C1081.9 403.9 1079.7 446.3 1069.1 484.1C1088.2 480.1 1105.6 474.6 1120.4 467.8C1132.2 434.7 1134.8 400.8 1134.8 381.7C1134.8 370.6 1131.2 360.1 1124.8 350.5Z" fill="url(#paint28_linear)"/>
<path d="M932.7 331.3C909.9 335.7 889.5 342.3 872.6 350.5C866.2 360.1 862.6 370.7 862.6 381.7C862.6 400.8 865.2 434.7 877 467.8C891.8 474.6 909.2 480.1 928.4 484.1C917.7 446.4 915.6 404 915.6 381.7C915.5 362.7 921.9 345.2 932.7 331.3Z" fill="url(#paint29_linear)"/>
<path d="M932.7 331.3C909.9 335.7 889.5 342.3 872.6 350.5C866.2 360.1 862.6 370.7 862.6 381.7C862.6 400.8 865.2 434.7 877 467.8C891.8 474.6 909.2 480.1 928.4 484.1C917.7 446.4 915.6 404 915.6 381.7C915.5 362.7 921.9 345.2 932.7 331.3Z" fill="url(#paint30_linear)"/>
<path d="M1064.8 331.3C1044.4 327.4 1022.1 325.2 998.8 325.2C975.4 325.2 953.1 327.4 932.8 331.3C922 345.3 915.6 362.7 915.6 381.7C915.6 403.9 917.8 446.3 928.4 484.1C949.9 488.6 973.7 491.1 998.8 491.1C1023.8 491.1 1047.6 488.6 1069.2 484.1C1079.9 446.4 1082 404 1082 381.7C1081.9 362.7 1075.5 345.2 1064.8 331.3Z" fill="url(#paint31_linear)"/>
<path d="M1064.8 331.3C1044.4 327.4 1022.1 325.2 998.8 325.2C975.4 325.2 953.1 327.4 932.8 331.3C922 345.3 915.6 362.7 915.6 381.7C915.6 403.9 917.8 446.3 928.4 484.1C949.9 488.6 973.7 491.1 998.8 491.1C1023.8 491.1 1047.6 488.6 1069.2 484.1C1079.9 446.4 1082 404 1082 381.7C1081.9 362.7 1075.5 345.2 1064.8 331.3Z" fill="url(#paint32_linear)"/>
<path d="M1064.8 331.3C1044.4 327.4 1022.1 325.2 998.8 325.2C975.4 325.2 953.1 327.4 932.8 331.3C922 345.3 915.6 362.7 915.6 381.7C915.6 403.9 917.8 446.3 928.4 484.1C949.9 488.6 973.7 491.1 998.8 491.1C1023.8 491.1 1047.6 488.6 1069.2 484.1C1079.9 446.4 1082 404 1082 381.7C1081.9 362.7 1075.5 345.2 1064.8 331.3Z" fill="url(#paint33_linear)"/>
<path d="M998.7 298.8C901.8 298.8 823.3 335.9 823.3 381.7C823.3 427.5 901.8 464.6 998.7 464.6C1095.6 464.6 1174.1 427.5 1174.1 381.7C1174.2 335.9 1095.6 298.8 998.7 298.8ZM998.7 446.3C923.1 446.3 861.9 417.4 861.9 381.7C861.9 346 923.2 317.1 998.7 317.1C1074.3 317.1 1135.5 346 1135.5 381.7C1135.5 417.4 1074.3 446.3 998.7 446.3Z" fill="url(#paint34_linear)"/>
<path d="M998.7 455.5C1084.97 455.5 1154.9 422.459 1154.9 381.7C1154.9 340.941 1084.97 307.9 998.7 307.9C912.433 307.9 842.5 340.941 842.5 381.7C842.5 422.459 912.433 455.5 998.7 455.5Z" fill="url(#paint35_radial)"/>
<path d="M998.7 443.8C928.5 443.8 873.5 416.5 873.5 381.6C873.5 346.7 928.5 319.4 998.7 319.4C1068.9 319.4 1123.9 346.7 1123.9 381.6C1123.9 416.5 1068.9 443.8 998.7 443.8ZM998.7 330.9C937 330.9 884.8 354.2 884.8 381.7C884.8 409.2 936.9 432.5 998.7 432.5C1060.4 432.5 1112.6 409.2 1112.6 381.7C1112.6 354.2 1060.4 330.9 998.7 330.9Z" fill="url(#paint36_radial)"/>
<path d="M998.7 424.1C951.9 424.1 915.3 405.5 915.3 381.7C915.3 357.9 951.9 339.3 998.7 339.3C1045.5 339.3 1082.1 357.9 1082.1 381.7C1082.1 405.5 1045.5 424.1 998.7 424.1ZM998.7 350.6C956.2 350.6 926.6 367 926.6 381.7C926.6 396.4 956.2 412.8 998.7 412.8C1041.2 412.8 1070.8 396.4 1070.8 381.7C1070.8 367 1041.2 350.6 998.7 350.6Z" fill="url(#paint37_radial)"/>
<path d="M998.7 408C970.6 408 949.3 396.7 949.3 381.7C949.3 366.7 970.5 355.4 998.7 355.4C1026.8 355.4 1048.1 366.7 1048.1 381.7C1048.1 396.7 1026.9 408 998.7 408ZM998.7 366.7C975.5 366.7 960.7 375.6 960.7 381.7C960.7 387.8 975.5 396.7 998.7 396.7C1021.9 396.7 1036.7 387.8 1036.7 381.7C1036.8 375.6 1021.9 366.7 998.7 366.7Z" fill="url(#paint38_radial)"/>
<path d="M1168.3 386.7C1160.5 372.9 1145.3 360.4 1124.8 350.5C1131.2 360.1 1134.8 370.7 1134.8 381.7C1134.8 400.8 1132.2 434.7 1120.4 467.8C1143.5 457.3 1160.5 443.8 1168.7 428.6C1172.3 412.5 1173.7 397.8 1174.1 386.7H1168.3V386.7Z" fill="url(#paint39_linear)"/>
<path d="M872.6 350.5C852.1 360.5 836.9 372.9 829.1 386.7H823.6V393.6C824.2 403.6 825.7 415.7 828.7 428.7C836.9 443.8 853.9 457.3 877 467.8C865.2 434.7 862.6 400.8 862.6 381.7C862.6 370.6 866.2 360.1 872.6 350.5Z" fill="url(#paint40_linear)"/>
<path d="M1124.8 350.5C1108 342.3 1087.6 335.7 1064.7 331.3C1075.5 345.3 1081.9 362.7 1081.9 381.7C1081.9 403.9 1079.7 446.3 1069.1 484.1C1088.2 480.1 1105.6 474.6 1120.4 467.8C1132.2 434.7 1134.8 400.8 1134.8 381.7C1134.8 370.6 1131.2 360.1 1124.8 350.5Z" fill="url(#paint41_linear)"/>
<path d="M1124.8 350.5C1108 342.3 1087.6 335.7 1064.7 331.3C1075.5 345.3 1081.9 362.7 1081.9 381.7C1081.9 403.9 1079.7 446.3 1069.1 484.1C1088.2 480.1 1105.6 474.6 1120.4 467.8C1132.2 434.7 1134.8 400.8 1134.8 381.7C1134.8 370.6 1131.2 360.1 1124.8 350.5Z" fill="url(#paint42_linear)"/>
<path d="M932.7 331.3C909.9 335.7 889.5 342.3 872.6 350.5C866.2 360.1 862.6 370.7 862.6 381.7C862.6 400.8 865.2 434.7 877 467.8C891.8 474.6 909.2 480.1 928.4 484.1C917.7 446.4 915.6 404 915.6 381.7C915.5 362.7 921.9 345.2 932.7 331.3Z" fill="url(#paint43_linear)"/>
<path d="M932.7 331.3C909.9 335.7 889.5 342.3 872.6 350.5C866.2 360.1 862.6 370.7 862.6 381.7C862.6 400.8 865.2 434.7 877 467.8C891.8 474.6 909.2 480.1 928.4 484.1C917.7 446.4 915.6 404 915.6 381.7C915.5 362.7 921.9 345.2 932.7 331.3Z" fill="url(#paint44_linear)"/>
<path d="M1064.8 331.3C1044.4 327.4 1022.1 325.2 998.8 325.2C975.4 325.2 953.1 327.4 932.8 331.3C922 345.3 915.6 362.7 915.6 381.7C915.6 403.9 917.8 446.3 928.4 484.1C949.9 488.6 973.7 491.1 998.8 491.1C1023.8 491.1 1047.6 488.6 1069.2 484.1C1079.9 446.4 1082 404 1082 381.7C1081.9 362.7 1075.5 345.2 1064.8 331.3Z" fill="url(#paint45_linear)"/>
<path d="M1064.8 331.3C1044.4 327.4 1022.1 325.2 998.8 325.2C975.4 325.2 953.1 327.4 932.8 331.3C922 345.3 915.6 362.7 915.6 381.7C915.6 403.9 917.8 446.3 928.4 484.1C949.9 488.6 973.7 491.1 998.8 491.1C1023.8 491.1 1047.6 488.6 1069.2 484.1C1079.9 446.4 1082 404 1082 381.7C1081.9 362.7 1075.5 345.2 1064.8 331.3Z" fill="url(#paint46_linear)"/>
<path d="M1064.8 331.3C1044.4 327.4 1022.1 325.2 998.8 325.2C975.4 325.2 953.1 327.4 932.8 331.3C922 345.3 915.6 362.7 915.6 381.7C915.6 403.9 917.8 446.3 928.4 484.1C949.9 488.6 973.7 491.1 998.8 491.1C1023.8 491.1 1047.6 488.6 1069.2 484.1C1079.9 446.4 1082 404 1082 381.7C1081.9 362.7 1075.5 345.2 1064.8 331.3Z" fill="url(#paint47_linear)"/>
<path d="M998.7 298.8C901.8 298.8 823.3 335.9 823.3 381.7C823.3 427.5 901.8 464.6 998.7 464.6C1095.6 464.6 1174.1 427.5 1174.1 381.7C1174.2 335.9 1095.6 298.8 998.7 298.8ZM998.7 446.3C923.1 446.3 861.9 417.4 861.9 381.7C861.9 346 923.2 317.1 998.7 317.1C1074.3 317.1 1135.5 346 1135.5 381.7C1135.5 417.4 1074.3 446.3 998.7 446.3Z" fill="url(#paint48_linear)"/>
<path d="M998.7 455.5C1084.97 455.5 1154.9 422.459 1154.9 381.7C1154.9 340.941 1084.97 307.9 998.7 307.9C912.433 307.9 842.5 340.941 842.5 381.7C842.5 422.459 912.433 455.5 998.7 455.5Z" fill="url(#paint49_radial)"/>
<path d="M998.7 443.8C928.5 443.8 873.5 416.5 873.5 381.6C873.5 346.7 928.5 319.4 998.7 319.4C1068.9 319.4 1123.9 346.7 1123.9 381.6C1123.9 416.5 1068.9 443.8 998.7 443.8ZM998.7 330.9C937 330.9 884.8 354.2 884.8 381.7C884.8 409.2 936.9 432.5 998.7 432.5C1060.4 432.5 1112.6 409.2 1112.6 381.7C1112.6 354.2 1060.4 330.9 998.7 330.9Z" fill="url(#paint50_radial)"/>
<path d="M998.7 424.1C951.9 424.1 915.3 405.5 915.3 381.7C915.3 357.9 951.9 339.3 998.7 339.3C1045.5 339.3 1082.1 357.9 1082.1 381.7C1082.1 405.5 1045.5 424.1 998.7 424.1ZM998.7 350.6C956.2 350.6 926.6 367 926.6 381.7C926.6 396.4 956.2 412.8 998.7 412.8C1041.2 412.8 1070.8 396.4 1070.8 381.7C1070.8 367 1041.2 350.6 998.7 350.6Z" fill="url(#paint51_radial)"/>
<path d="M998.7 408C970.6 408 949.3 396.7 949.3 381.7C949.3 366.7 970.5 355.4 998.7 355.4C1026.8 355.4 1048.1 366.7 1048.1 381.7C1048.1 396.7 1026.9 408 998.7 408ZM998.7 366.7C975.5 366.7 960.7 375.6 960.7 381.7C960.7 387.8 975.5 396.7 998.7 396.7C1021.9 396.7 1036.7 387.8 1036.7 381.7C1036.8 375.6 1021.9 366.7 998.7 366.7Z" fill="url(#paint52_radial)"/>
<path d="M803.1 338C894.4 324.8 975 344.3 999 382.2C1002.5 373.8 1003.9 365.2 1002.7 356.7C995.5 307.1 904.7 279.2 799.9 294.4C695 309.5 615.8 362 623 411.5C623.9 417.9 626.3 424 629.9 429.6C647 388.8 716.2 350.6 803.1 338Z" fill="url(#paint53_radial)"/>
<path d="M1019.9 360.5C1008 345 987.3 332.6 960.7 324.1C970.2 334.7 976.4 346.9 978.3 360.3C981.6 383.5 984.4 425.2 975.9 467.5C1002.2 450.6 1020.5 431.3 1027.8 411.4C1029.4 391.1 1028.5 373.1 1027 359.5L1019.9 360.5Z" fill="url(#paint54_linear)"/>
<path d="M654.1 368.3C631 384 614.7 401.8 607.6 420L600.9 421L602.1 429.3C604.6 441.3 608.5 455.8 614.4 471.1C627 488.1 650.1 501.5 680 510.2C659.9 472 650.7 431.2 647.4 408C645.5 394.6 648 381.2 654.1 368.3Z" fill="url(#paint55_linear)"/>
<path d="M960.7 324.1C938.8 317 912.8 312.6 884.3 311.3C899.8 326.4 910.7 346.5 914 369.6C917.9 396.6 922.7 448.5 916.4 496.3C939 488.1 959.1 478.3 976 467.5C984.5 425.2 981.7 383.5 978.4 360.3C976.4 346.8 970.2 334.6 960.7 324.1Z" fill="url(#paint56_linear)"/>
<path d="M960.7 324.1C938.8 317 912.8 312.6 884.3 311.3C899.8 326.4 910.7 346.5 914 369.6C917.9 396.6 922.7 448.5 916.4 496.3C939 488.1 959.1 478.3 976 467.5C984.5 425.2 981.7 383.5 978.4 360.3C976.4 346.8 970.2 334.6 960.7 324.1Z" fill="url(#paint57_linear)"/>
<path d="M723.7 334.4C696.7 343.7 673.1 355.3 654 368.3C647.9 381.1 645.4 394.6 647.3 408C650.6 431.2 659.8 472 679.9 510.2C699.1 515.8 721.2 519.5 745.2 521C725.6 477 715.5 425.8 711.6 398.8C708.4 375.7 713.1 353.3 723.7 334.4Z" fill="url(#paint58_linear)"/>
<path d="M723.7 334.4C696.7 343.7 673.1 355.3 654 368.3C647.9 381.1 645.4 394.6 647.3 408C650.6 431.2 659.8 472 679.9 510.2C699.1 515.8 721.2 519.5 745.2 521C725.6 477 715.5 425.8 711.6 398.8C708.4 375.7 713.1 353.3 723.7 334.4Z" fill="url(#paint59_linear)"/>
<path d="M884.3 311.3C858.8 310.1 831.3 311.4 802.9 315.5C774.5 319.6 747.8 326.1 723.7 334.5C713.1 353.4 708.4 375.7 711.7 398.8C715.6 425.8 725.7 477 745.3 521C772.3 522.6 801.6 521.5 832.1 517.1C862.5 512.7 891 505.5 916.4 496.3C922.8 448.5 917.9 396.6 914 369.6C910.7 346.5 899.8 326.4 884.3 311.3Z" fill="url(#paint60_linear)"/>
<path d="M884.3 311.3C858.8 310.1 831.3 311.4 802.9 315.5C774.5 319.6 747.8 326.1 723.7 334.5C713.1 353.4 708.4 375.7 711.7 398.8C715.6 425.8 725.7 477 745.3 521C772.3 522.6 801.6 521.5 832.1 517.1C862.5 512.7 891 505.5 916.4 496.3C922.8 448.5 917.9 396.6 914 369.6C910.7 346.5 899.8 326.4 884.3 311.3Z" fill="url(#paint61_linear)"/>
<path d="M884.3 311.3C858.8 310.1 831.3 311.4 802.9 315.5C774.5 319.6 747.8 326.1 723.7 334.5C713.1 353.4 708.4 375.7 711.7 398.8C715.6 425.8 725.7 477 745.3 521C772.3 522.6 801.6 521.5 832.1 517.1C862.5 512.7 891 505.5 916.4 496.3C922.8 448.5 917.9 396.6 914 369.6C910.7 346.5 899.8 326.4 884.3 311.3Z" fill="url(#paint62_linear)"/>
<path d="M798.3 283.3C680.5 300.3 591.5 359.2 599.5 414.9C607.5 470.6 709.6 501.9 827.4 484.9C945.2 467.9 1034.2 409 1026.2 353.3C1018.2 297.7 916.1 266.3 798.3 283.3ZM824.2 462.7C732.3 476 652.8 451.5 646.5 408.1C640.2 364.7 709.6 318.7 801.5 305.5C893.4 292.2 972.9 316.7 979.2 360.1C985.5 403.5 916.1 449.5 824.2 462.7Z" fill="url(#paint63_linear)"/>
<path d="M1002.8 356.7C1010 406.3 930.7 458.7 825.9 473.8C721 488.9 630.2 461 623.1 411.5C615.9 361.9 695.2 309.5 800 294.4C904.8 279.3 995.6 307.2 1002.8 356.7Z" fill="url(#paint64_radial)"/>
<path d="M823.8 459.7C738.4 472 666.8 448.5 660.6 406.1C654.4 363.7 716.6 320.9 801.9 308.5C887.3 296.2 958.9 319.7 965.1 362.1C971.3 404.5 909.2 447.4 823.8 459.7ZM804 322.3C729 333.1 669.6 370.6 674.5 404.1C679.3 437.6 746.8 456.7 821.9 445.9C896.9 435.1 956.3 397.6 951.4 364.1C946.5 330.7 879 311.5 804 322.3Z" fill="url(#paint65_radial)"/>
<path d="M820.3 435.7C763.4 443.9 715.6 427.7 711.4 398.8C707.2 369.9 748.5 340.8 805.4 332.6C862.3 324.4 910.1 340.6 914.3 369.5C918.5 398.4 877.2 427.5 820.3 435.7ZM807.4 346.3C755.7 353.8 722.6 378.9 725.2 396.7C727.8 414.6 766.6 429.3 818.3 421.8C870 414.3 903.1 389.2 900.5 371.4C897.9 353.6 859.1 338.9 807.4 346.3Z" fill="url(#paint66_radial)"/>
<path d="M817.5 416.1C783.3 421 755.5 411 752.8 392.8C750.2 374.6 774 357.1 808.2 352.1C842.4 347.2 870.2 357.2 872.9 375.4C875.5 393.7 851.7 411.2 817.5 416.1ZM810.2 365.9C782 370 765.5 383.4 766.6 390.8C767.7 398.2 787.2 406.4 815.5 402.3C843.7 398.2 860.2 384.8 859.1 377.4C858 370 838.5 361.8 810.2 365.9Z" fill="url(#paint67_radial)"/>
<path d="M1019.9 360.5C1008 345 987.3 332.6 960.7 324.1C970.2 334.7 976.4 346.9 978.3 360.3C981.6 383.5 984.4 425.2 975.9 467.5C1002.2 450.6 1020.5 431.3 1027.8 411.4C1029.4 391.1 1028.5 373.1 1027 359.5L1019.9 360.5Z" fill="url(#paint68_linear)"/>
<path d="M654.1 368.3C631 384 614.7 401.8 607.6 420L600.9 421L602.1 429.3C604.6 441.3 608.5 455.8 614.4 471.1C627 488.1 650.1 501.5 680 510.2C659.9 472 650.7 431.2 647.4 408C645.5 394.6 648 381.2 654.1 368.3Z" fill="url(#paint69_linear)"/>
<path d="M960.7 324.1C938.8 317 912.8 312.6 884.3 311.3C899.8 326.4 910.7 346.5 914 369.6C917.9 396.6 922.7 448.5 916.4 496.3C939 488.1 959.1 478.3 976 467.5C984.5 425.2 981.7 383.5 978.4 360.3C976.4 346.8 970.2 334.6 960.7 324.1Z" fill="url(#paint70_linear)"/>
<path d="M960.7 324.1C938.8 317 912.8 312.6 884.3 311.3C899.8 326.4 910.7 346.5 914 369.6C917.9 396.6 922.7 448.5 916.4 496.3C939 488.1 959.1 478.3 976 467.5C984.5 425.2 981.7 383.5 978.4 360.3C976.4 346.8 970.2 334.6 960.7 324.1Z" fill="url(#paint71_linear)"/>
<path d="M723.7 334.4C696.7 343.7 673.1 355.3 654 368.3C647.9 381.1 645.4 394.6 647.3 408C650.6 431.2 659.8 472 679.9 510.2C699.1 515.8 721.2 519.5 745.2 521C725.6 477 715.5 425.8 711.6 398.8C708.4 375.7 713.1 353.3 723.7 334.4Z" fill="url(#paint72_linear)"/>
<path d="M723.7 334.4C696.7 343.7 673.1 355.3 654 368.3C647.9 381.1 645.4 394.6 647.3 408C650.6 431.2 659.8 472 679.9 510.2C699.1 515.8 721.2 519.5 745.2 521C725.6 477 715.5 425.8 711.6 398.8C708.4 375.7 713.1 353.3 723.7 334.4Z" fill="url(#paint73_linear)"/>
<path d="M884.3 311.3C858.8 310.1 831.3 311.4 802.9 315.5C774.5 319.6 747.8 326.1 723.7 334.5C713.1 353.4 708.4 375.7 711.7 398.8C715.6 425.8 725.7 477 745.3 521C772.3 522.6 801.6 521.5 832.1 517.1C862.5 512.7 891 505.5 916.4 496.3C922.8 448.5 917.9 396.6 914 369.6C910.7 346.5 899.8 326.4 884.3 311.3Z" fill="url(#paint74_linear)"/>
<path d="M884.3 311.3C858.8 310.1 831.3 311.4 802.9 315.5C774.5 319.6 747.8 326.1 723.7 334.5C713.1 353.4 708.4 375.7 711.7 398.8C715.6 425.8 725.7 477 745.3 521C772.3 522.6 801.6 521.5 832.1 517.1C862.5 512.7 891 505.5 916.4 496.3C922.8 448.5 917.9 396.6 914 369.6C910.7 346.5 899.8 326.4 884.3 311.3Z" fill="url(#paint75_linear)"/>
<path d="M884.3 311.3C858.8 310.1 831.3 311.4 802.9 315.5C774.5 319.6 747.8 326.1 723.7 334.5C713.1 353.4 708.4 375.7 711.7 398.8C715.6 425.8 725.7 477 745.3 521C772.3 522.6 801.6 521.5 832.1 517.1C862.5 512.7 891 505.5 916.4 496.3C922.8 448.5 917.9 396.6 914 369.6C910.7 346.5 899.8 326.4 884.3 311.3Z" fill="url(#paint76_linear)"/>
<path d="M798.3 283.3C680.5 300.3 591.5 359.2 599.5 414.9C607.5 470.6 709.6 501.9 827.4 484.9C945.2 467.9 1034.2 409 1026.2 353.3C1018.2 297.7 916.1 266.3 798.3 283.3ZM824.2 462.7C732.3 476 652.8 451.5 646.5 408.1C640.2 364.7 709.6 318.7 801.5 305.5C893.4 292.2 972.9 316.7 979.2 360.1C985.5 403.5 916.1 449.5 824.2 462.7Z" fill="url(#paint77_linear)"/>
<path d="M1002.8 356.7C1010 406.3 930.7 458.7 825.9 473.8C721 488.9 630.2 461 623.1 411.5C615.9 361.9 695.2 309.5 800 294.4C904.8 279.3 995.6 307.2 1002.8 356.7Z" fill="url(#paint78_radial)"/>
<path d="M823.8 459.7C738.4 472 666.8 448.5 660.6 406.1C654.4 363.7 716.6 320.9 801.9 308.5C887.3 296.2 958.9 319.7 965.1 362.1C971.3 404.5 909.2 447.4 823.8 459.7ZM804 322.3C729 333.1 669.6 370.6 674.5 404.1C679.3 437.6 746.8 456.7 821.9 445.9C896.9 435.1 956.3 397.6 951.4 364.1C946.5 330.7 879 311.5 804 322.3Z" fill="url(#paint79_radial)"/>
<path d="M820.3 435.7C763.4 443.9 715.6 427.7 711.4 398.8C707.2 369.9 748.5 340.8 805.4 332.6C862.3 324.4 910.1 340.6 914.3 369.5C918.5 398.4 877.2 427.5 820.3 435.7ZM807.4 346.3C755.7 353.8 722.6 378.9 725.2 396.7C727.8 414.6 766.6 429.3 818.3 421.8C870 414.3 903.1 389.2 900.5 371.4C897.9 353.6 859.1 338.9 807.4 346.3Z" fill="url(#paint80_radial)"/>
<path d="M817.5 416.1C783.3 421 755.5 411 752.8 392.8C750.2 374.6 774 357.1 808.2 352.1C842.4 347.2 870.2 357.2 872.9 375.4C875.5 393.7 851.7 411.2 817.5 416.1ZM810.2 365.9C782 370 765.5 383.4 766.6 390.8C767.7 398.2 787.2 406.4 815.5 402.3C843.7 398.2 860.2 384.8 859.1 377.4C858 370 838.5 361.8 810.2 365.9Z" fill="url(#paint81_radial)"/>
<path d="M859.1 250.6C934.2 250.6 996.8 275.6 1011.8 309C1015.6 302.6 1017.7 295.9 1017.7 288.9C1017.7 248.1 947.8 215.1 861.5 215.1C775.2 215.1 705.3 248.1 705.3 288.9C705.3 294.2 706.5 299.3 708.7 304.3C727.4 273.3 787.6 250.6 859.1 250.6Z" fill="url(#paint82_radial)"/>
<path d="M1031.1 293.9C1023.3 280.1 1008.1 267.6 987.6 257.7C994 267.3 997.6 277.9 997.6 288.9C997.6 308 995 341.9 983.2 375C1006.3 364.5 1023.3 351 1031.5 335.8C1035.1 319.7 1036.5 305 1036.9 293.9H1031.1V293.9Z" fill="url(#paint83_linear)"/>
<path d="M735.5 257.7C715 267.7 699.8 280.1 692 293.9H686.5V300.8C687.1 310.8 688.6 322.9 691.6 335.9C699.8 351 716.8 364.5 739.9 375C728.1 341.9 725.5 308 725.5 288.9C725.5 277.9 729.1 267.3 735.5 257.7Z" fill="url(#paint84_linear)"/>
<path d="M987.7 257.7C970.9 249.5 950.5 242.9 927.6 238.5C938.4 252.5 944.8 269.9 944.8 288.9C944.8 311.1 942.6 353.5 932 391.3C951.1 387.3 968.5 381.8 983.3 375C995.1 341.9 997.7 308 997.7 288.9C997.7 277.9 994.1 267.3 987.7 257.7Z" fill="url(#paint85_linear)"/>
<path d="M987.7 257.7C970.9 249.5 950.5 242.9 927.6 238.5C938.4 252.5 944.8 269.9 944.8 288.9C944.8 311.1 942.6 353.5 932 391.3C951.1 387.3 968.5 381.8 983.3 375C995.1 341.9 997.7 308 997.7 288.9C997.7 277.9 994.1 267.3 987.7 257.7Z" fill="url(#paint86_linear)"/>
<path d="M795.499 238.5C772.699 242.9 752.299 249.5 735.399 257.7C728.999 267.3 725.399 277.9 725.399 288.9C725.399 308 727.999 341.9 739.799 375C754.599 381.8 771.999 387.3 791.199 391.3C780.499 353.6 778.399 311.2 778.399 288.9C778.399 269.9 784.799 252.5 795.499 238.5Z" fill="url(#paint87_linear)"/>
<path d="M795.499 238.5C772.699 242.9 752.299 249.5 735.399 257.7C728.999 267.3 725.399 277.9 725.399 288.9C725.399 308 727.999 341.9 739.799 375C754.599 381.8 771.999 387.3 791.199 391.3C780.499 353.6 778.399 311.2 778.399 288.9C778.399 269.9 784.799 252.5 795.499 238.5Z" fill="url(#paint88_linear)"/>
<path d="M927.599 238.5C907.199 234.6 884.899 232.4 861.599 232.4C838.199 232.4 815.899 234.6 795.599 238.5C784.799 252.5 778.399 269.9 778.399 288.9C778.399 311.1 780.599 353.5 791.199 391.3C812.699 395.8 836.499 398.3 861.599 398.3C886.599 398.3 910.399 395.8 931.999 391.3C942.699 353.6 944.799 311.2 944.799 288.9C944.799 269.9 938.399 252.5 927.599 238.5Z" fill="url(#paint89_linear)"/>
<path d="M927.599 238.5C907.199 234.6 884.899 232.4 861.599 232.4C838.199 232.4 815.899 234.6 795.599 238.5C784.799 252.5 778.399 269.9 778.399 288.9C778.399 311.1 780.599 353.5 791.199 391.3C812.699 395.8 836.499 398.3 861.599 398.3C886.599 398.3 910.399 395.8 931.999 391.3C942.699 353.6 944.799 311.2 944.799 288.9C944.799 269.9 938.399 252.5 927.599 238.5Z" fill="url(#paint90_linear)"/>
<path d="M927.599 238.5C907.199 234.6 884.899 232.4 861.599 232.4C838.199 232.4 815.899 234.6 795.599 238.5C784.799 252.5 778.399 269.9 778.399 288.9C778.399 311.1 780.599 353.5 791.199 391.3C812.699 395.8 836.499 398.3 861.599 398.3C886.599 398.3 910.399 395.8 931.999 391.3C942.699 353.6 944.799 311.2 944.799 288.9C944.799 269.9 938.399 252.5 927.599 238.5Z" fill="url(#paint91_linear)"/>
<path d="M861.6 206C764.7 206 686.2 243.1 686.2 288.9C686.2 334.7 764.7 371.8 861.6 371.8C958.5 371.8 1037 334.7 1037 288.9C1037 243.1 958.5 206 861.6 206ZM861.6 353.5C786 353.5 724.8 324.6 724.8 288.9C724.8 253.2 786.1 224.3 861.6 224.3C937.2 224.3 998.4 253.2 998.4 288.9C998.4 324.6 937.1 353.5 861.6 353.5Z" fill="url(#paint92_linear)"/>
<path d="M861.599 362.7C947.866 362.7 1017.8 329.659 1017.8 288.9C1017.8 248.141 947.866 215.1 861.599 215.1C775.333 215.1 705.399 248.141 705.399 288.9C705.399 329.659 775.333 362.7 861.599 362.7Z" fill="url(#paint93_radial)"/>
<path d="M861.599 351.1C791.399 351.1 736.399 323.8 736.399 288.9C736.399 254 791.399 226.7 861.599 226.7C931.799 226.7 986.799 254 986.799 288.9C986.799 323.7 931.799 351.1 861.599 351.1ZM861.599 238.1C799.899 238.1 747.699 261.4 747.699 288.9C747.699 316.4 799.799 339.7 861.599 339.7C923.299 339.7 975.499 316.4 975.499 288.9C975.499 261.4 923.299 238.1 861.599 238.1Z" fill="url(#paint94_radial)"/>
<path d="M861.6 331.3C814.8 331.3 778.2 312.7 778.2 288.9C778.2 265.1 814.8 246.5 861.6 246.5C908.4 246.5 945 265.1 945 288.9C945 312.7 908.4 331.3 861.6 331.3ZM861.6 257.8C819.1 257.8 789.5 274.2 789.5 288.9C789.5 303.6 819.1 320 861.6 320C904.1 320 933.7 303.6 933.7 288.9C933.7 274.2 904.1 257.8 861.6 257.8Z" fill="url(#paint95_radial)"/>
<path d="M861.6 315.2C833.5 315.2 812.2 303.9 812.2 288.9C812.2 273.9 833.4 262.6 861.6 262.6C889.7 262.6 911 273.9 911 288.9C911 303.9 889.7 315.2 861.6 315.2ZM861.6 273.9C838.4 273.9 823.6 282.8 823.6 288.9C823.6 295 838.4 303.9 861.6 303.9C884.8 303.9 899.6 295 899.6 288.9C899.6 282.8 884.8 273.9 861.6 273.9Z" fill="url(#paint96_radial)"/>
<path d="M1031.1 293.9C1023.3 280.1 1008.1 267.6 987.6 257.7C994 267.3 997.6 277.9 997.6 288.9C997.6 308 995 341.9 983.2 375C1006.3 364.5 1023.3 351 1031.5 335.8C1035.1 319.7 1036.5 305 1036.9 293.9H1031.1V293.9Z" fill="url(#paint97_linear)"/>
<path d="M735.5 257.7C715 267.7 699.8 280.1 692 293.9H686.5V300.8C687.1 310.8 688.6 322.9 691.6 335.9C699.8 351 716.8 364.5 739.9 375C728.1 341.9 725.5 308 725.5 288.9C725.5 277.9 729.1 267.3 735.5 257.7Z" fill="url(#paint98_linear)"/>
<path d="M987.7 257.7C970.9 249.5 950.5 242.9 927.6 238.5C938.4 252.5 944.8 269.9 944.8 288.9C944.8 311.1 942.6 353.5 932 391.3C951.1 387.3 968.5 381.8 983.3 375C995.1 341.9 997.7 308 997.7 288.9C997.7 277.9 994.1 267.3 987.7 257.7Z" fill="url(#paint99_linear)"/>
<path d="M987.7 257.7C970.9 249.5 950.5 242.9 927.6 238.5C938.4 252.5 944.8 269.9 944.8 288.9C944.8 311.1 942.6 353.5 932 391.3C951.1 387.3 968.5 381.8 983.3 375C995.1 341.9 997.7 308 997.7 288.9C997.7 277.9 994.1 267.3 987.7 257.7Z" fill="url(#paint100_linear)"/>
<path d="M795.499 238.5C772.699 242.9 752.299 249.5 735.399 257.7C728.999 267.3 725.399 277.9 725.399 288.9C725.399 308 727.999 341.9 739.799 375C754.599 381.8 771.999 387.3 791.199 391.3C780.499 353.6 778.399 311.2 778.399 288.9C778.399 269.9 784.799 252.5 795.499 238.5Z" fill="url(#paint101_linear)"/>
<path d="M795.499 238.5C772.699 242.9 752.299 249.5 735.399 257.7C728.999 267.3 725.399 277.9 725.399 288.9C725.399 308 727.999 341.9 739.799 375C754.599 381.8 771.999 387.3 791.199 391.3C780.499 353.6 778.399 311.2 778.399 288.9C778.399 269.9 784.799 252.5 795.499 238.5Z" fill="url(#paint102_linear)"/>
<path d="M927.599 238.5C907.199 234.6 884.899 232.4 861.599 232.4C838.199 232.4 815.899 234.6 795.599 238.5C784.799 252.5 778.399 269.9 778.399 288.9C778.399 311.1 780.599 353.5 791.199 391.3C812.699 395.8 836.499 398.3 861.599 398.3C886.599 398.3 910.399 395.8 931.999 391.3C942.699 353.6 944.799 311.2 944.799 288.9C944.799 269.9 938.399 252.5 927.599 238.5Z" fill="url(#paint103_linear)"/>
<path d="M927.599 238.5C907.199 234.6 884.899 232.4 861.599 232.4C838.199 232.4 815.899 234.6 795.599 238.5C784.799 252.5 778.399 269.9 778.399 288.9C778.399 311.1 780.599 353.5 791.199 391.3C812.699 395.8 836.499 398.3 861.599 398.3C886.599 398.3 910.399 395.8 931.999 391.3C942.699 353.6 944.799 311.2 944.799 288.9C944.799 269.9 938.399 252.5 927.599 238.5Z" fill="url(#paint104_linear)"/>
<path d="M927.599 238.5C907.199 234.6 884.899 232.4 861.599 232.4C838.199 232.4 815.899 234.6 795.599 238.5C784.799 252.5 778.399 269.9 778.399 288.9C778.399 311.1 780.599 353.5 791.199 391.3C812.699 395.8 836.499 398.3 861.599 398.3C886.599 398.3 910.399 395.8 931.999 391.3C942.699 353.6 944.799 311.2 944.799 288.9C944.799 269.9 938.399 252.5 927.599 238.5Z" fill="url(#paint105_linear)"/>
<path d="M861.6 206C764.7 206 686.2 243.1 686.2 288.9C686.2 334.7 764.7 371.8 861.6 371.8C958.5 371.8 1037 334.7 1037 288.9C1037 243.1 958.5 206 861.6 206ZM861.6 353.5C786 353.5 724.8 324.6 724.8 288.9C724.8 253.2 786.1 224.3 861.6 224.3C937.2 224.3 998.4 253.2 998.4 288.9C998.4 324.6 937.1 353.5 861.6 353.5Z" fill="url(#paint106_linear)"/>
<path d="M861.599 362.7C947.866 362.7 1017.8 329.659 1017.8 288.9C1017.8 248.141 947.866 215.1 861.599 215.1C775.333 215.1 705.399 248.141 705.399 288.9C705.399 329.659 775.333 362.7 861.599 362.7Z" fill="url(#paint107_radial)"/>
<path d="M861.599 351.1C791.399 351.1 736.399 323.8 736.399 288.9C736.399 254 791.399 226.7 861.599 226.7C931.799 226.7 986.799 254 986.799 288.9C986.799 323.7 931.799 351.1 861.599 351.1ZM861.599 238.1C799.899 238.1 747.699 261.4 747.699 288.9C747.699 316.4 799.799 339.7 861.599 339.7C923.299 339.7 975.499 316.4 975.499 288.9C975.499 261.4 923.299 238.1 861.599 238.1Z" fill="url(#paint108_radial)"/>
<path d="M861.6 331.3C814.8 331.3 778.2 312.7 778.2 288.9C778.2 265.1 814.8 246.5 861.6 246.5C908.4 246.5 945 265.1 945 288.9C945 312.7 908.4 331.3 861.6 331.3ZM861.6 257.8C819.1 257.8 789.5 274.2 789.5 288.9C789.5 303.6 819.1 320 861.6 320C904.1 320 933.7 303.6 933.7 288.9C933.7 274.2 904.1 257.8 861.6 257.8Z" fill="url(#paint109_radial)"/>
<path d="M861.6 315.2C833.5 315.2 812.2 303.9 812.2 288.9C812.2 273.9 833.4 262.6 861.6 262.6C889.7 262.6 911 273.9 911 288.9C911 303.9 889.7 315.2 861.6 315.2ZM861.6 273.9C838.4 273.9 823.6 282.8 823.6 288.9C823.6 295 838.4 303.9 861.6 303.9C884.8 303.9 899.6 295 899.6 288.9C899.6 282.8 884.8 273.9 861.6 273.9Z" fill="url(#paint110_radial)"/>
<path d="M1130.84 508.196C1127.75 490.244 1117.88 472.39 1102.69 456.593C1105.69 469.272 1105.98 482.592 1103.03 495.684C1097.92 518.415 1086.57 558.252 1067.44 595.334C1090.35 587.362 1108.76 574.625 1119.96 558.141C1127.41 539.684 1132.56 522.464 1135.89 509.331L1130.84 508.196V508.196Z" fill="url(#paint111_linear)"/>
<path d="M883.36 407.219C862.846 415.105 846.299 426.886 835.816 441.782L831.031 440.705L829.182 448.917C827.025 460.936 825.089 475.63 824.216 491.689C827.304 511.266 838.478 530.663 855.762 547.683C854.364 505.979 861.184 465.124 866.301 442.392C869.248 429.301 875.22 417.39 883.36 407.219Z" fill="url(#paint112_linear)"/>
<path d="M1102.78 456.613C1090.36 443.563 1074.38 431.713 1055.64 421.991C1061.28 440.768 1062.19 462.73 1057.1 485.343C1051.15 511.764 1037.88 561.795 1018.53 604.706C1036.21 603.686 1052.83 600.548 1067.52 595.354C1086.66 558.271 1098 518.435 1103.12 495.703C1106.07 482.612 1105.78 469.291 1102.78 456.613Z" fill="url(#paint113_linear)"/>
<path d="M1102.78 456.613C1090.36 443.563 1074.38 431.713 1055.64 421.991C1061.28 440.768 1062.19 462.73 1057.1 485.343C1051.15 511.764 1037.88 561.795 1018.53 604.706C1036.21 603.686 1052.83 600.548 1067.52 595.354C1086.66 558.271 1098 518.435 1103.12 495.703C1106.07 482.612 1105.78 469.291 1102.78 456.613Z" fill="url(#paint114_linear)"/>
<path d="M940.706 396.119C919.69 396.89 900.174 400.75 883.274 407.199C875.133 417.371 869.161 429.281 866.214 442.373C861.097 465.104 854.277 505.959 855.675 547.664C866.73 558.655 880.395 568.609 896.027 577.13C896.818 530.166 906.351 479.293 912.325 452.753C917.416 430.14 927.646 410.685 940.706 396.119Z" fill="url(#paint115_linear)"/>
<path d="M940.706 396.119C919.69 396.89 900.174 400.75 883.274 407.199C875.133 417.371 869.161 429.281 866.214 442.373C861.097 465.104 854.277 505.959 855.675 547.664C866.73 558.655 880.395 568.609 896.027 577.13C896.818 530.166 906.351 479.293 912.325 452.753C917.416 430.14 927.646 410.685 940.706 396.119Z" fill="url(#paint116_linear)"/>
<path d="M1055.64 421.991C1038.93 413.354 1020.12 406.368 999.849 401.805C979.49 397.222 959.499 395.473 940.793 396.139C927.646 410.685 917.416 430.14 912.326 452.753C906.378 479.174 896.932 530.067 896.027 577.13C913.527 586.696 933.564 594.333 955.402 599.249C977.152 604.145 998.528 605.831 1018.53 604.706C1037.94 561.933 1051.12 511.883 1057.1 485.343C1062.19 462.73 1061.28 440.768 1055.64 421.991Z" fill="url(#paint117_linear)"/>
<path d="M1055.64 421.991C1038.93 413.354 1020.12 406.368 999.849 401.805C979.49 397.222 959.499 395.473 940.793 396.139C927.646 410.685 917.416 430.14 912.326 452.753C906.378 479.174 896.932 530.067 896.027 577.13C913.527 586.696 933.564 594.333 955.402 599.249C977.152 604.145 998.528 605.831 1018.53 604.706C1037.94 561.933 1051.12 511.883 1057.1 485.343C1062.19 462.73 1061.28 440.768 1055.64 421.991Z" fill="url(#paint118_linear)"/>
<path d="M1055.64 421.991C1038.93 413.354 1020.12 406.368 999.849 401.805C979.49 397.222 959.499 395.473 940.793 396.139C927.646 410.685 917.416 430.14 912.326 452.753C906.378 479.174 896.932 530.067 896.027 577.13C913.527 586.696 933.564 594.333 955.402 599.249C977.152 604.145 998.528 605.831 1018.53 604.706C1037.94 561.933 1051.12 511.883 1057.1 485.343C1062.19 462.73 1061.28 440.768 1055.64 421.991Z" fill="url(#paint119_linear)"/>
<path d="M1006.92 370.386C922.616 351.407 844.38 380.187 832.109 434.695C819.839 489.204 878.196 548.732 962.501 567.71C1046.81 586.688 1125.04 557.909 1137.31 503.4C1149.58 448.892 1091.23 389.364 1006.92 370.386ZM967.403 545.931C901.63 531.124 856.127 484.743 865.692 442.255C875.257 399.767 936.332 377.378 1002.02 392.165C1067.79 406.972 1113.29 453.353 1103.73 495.841C1094.16 538.328 1033.09 560.718 967.403 545.931Z" fill="url(#paint120_linear)"/>
<path d="M964.939 556.88C1039.99 573.776 1109.69 548.148 1120.61 499.64C1131.53 451.132 1079.54 398.111 1004.48 381.216C929.429 364.32 859.734 389.947 848.814 438.456C837.894 486.964 889.885 539.984 964.939 556.88Z" fill="url(#paint121_radial)"/>
<path d="M968.047 543.074C906.972 529.326 866.435 486.063 875.785 444.527C885.135 402.991 940.3 381.273 1001.38 395.021C1062.45 408.77 1102.99 452.033 1093.64 493.569C1084.31 534.985 1029.12 556.823 968.047 543.074ZM998.322 408.589C944.641 396.505 892.984 414.011 885.616 446.74C878.249 479.469 917.334 517.403 971.101 529.507C1024.78 541.591 1076.44 524.084 1083.81 491.355C1091.17 458.627 1052 420.673 998.322 408.589Z" fill="url(#paint122_radial)"/>
<path d="M973.351 519.51C932.634 510.344 905.775 481.039 912.151 452.714C918.528 424.389 955.354 409.42 996.07 418.586C1036.79 427.752 1063.65 457.057 1057.27 485.382C1050.89 513.707 1014.07 528.676 973.351 519.51ZM993.043 432.035C956.067 423.711 925.921 437.432 921.982 454.927C918.044 472.422 939.403 497.737 976.379 506.061C1013.35 514.385 1043.5 500.664 1047.44 483.169C1051.38 465.674 1030.02 440.358 993.043 432.035Z" fill="url(#paint123_radial)"/>
<path d="M977.665 500.349C953.217 494.845 937.713 477.225 941.732 459.373C945.75 441.521 967.222 432.224 991.757 437.747C1016.2 443.251 1031.71 460.871 1027.69 478.723C1023.67 496.575 1002.11 505.852 977.665 500.349ZM988.729 451.196C968.545 446.652 953.284 454.346 951.65 461.606C950.016 468.865 960.508 482.356 980.692 486.9C1000.88 491.444 1016.14 483.75 1017.77 476.49C1019.41 469.23 1008.91 455.74 988.729 451.196Z" fill="url(#paint124_radial)"/>
<path d="M1130.84 508.196C1127.75 490.244 1117.88 472.39 1102.69 456.593C1105.69 469.272 1105.98 482.592 1103.03 495.684C1097.92 518.415 1086.57 558.252 1067.44 595.334C1090.35 587.362 1108.76 574.625 1119.96 558.141C1127.41 539.684 1132.56 522.464 1135.89 509.331L1130.84 508.196V508.196Z" fill="url(#paint125_linear)"/>
<path d="M883.36 407.219C862.846 415.105 846.299 426.886 835.816 441.782L831.031 440.705L829.182 448.917C827.025 460.936 825.089 475.63 824.216 491.689C827.304 511.266 838.478 530.663 855.762 547.683C854.364 505.979 861.184 465.124 866.301 442.392C869.248 429.301 875.22 417.39 883.36 407.219Z" fill="url(#paint126_linear)"/>
<path d="M1102.78 456.613C1090.36 443.563 1074.38 431.713 1055.64 421.991C1061.28 440.768 1062.19 462.73 1057.1 485.343C1051.15 511.764 1037.88 561.795 1018.53 604.706C1036.21 603.686 1052.83 600.548 1067.52 595.354C1086.66 558.271 1098 518.435 1103.12 495.703C1106.07 482.612 1105.78 469.291 1102.78 456.613Z" fill="url(#paint127_linear)"/>
<path d="M1102.78 456.613C1090.36 443.563 1074.38 431.713 1055.64 421.991C1061.28 440.768 1062.19 462.73 1057.1 485.343C1051.15 511.764 1037.88 561.795 1018.53 604.706C1036.21 603.686 1052.83 600.548 1067.52 595.354C1086.66 558.271 1098 518.435 1103.12 495.703C1106.07 482.612 1105.78 469.291 1102.78 456.613Z" fill="url(#paint128_linear)"/>
<path d="M940.706 396.119C919.69 396.89 900.174 400.75 883.274 407.199C875.133 417.371 869.161 429.281 866.214 442.373C861.097 465.104 854.277 505.959 855.675 547.664C866.73 558.655 880.395 568.609 896.027 577.13C896.818 530.166 906.351 479.293 912.325 452.753C917.416 430.14 927.646 410.685 940.706 396.119Z" fill="url(#paint129_linear)"/>
<path d="M940.706 396.119C919.69 396.89 900.174 400.75 883.274 407.199C875.133 417.371 869.161 429.281 866.214 442.373C861.097 465.104 854.277 505.959 855.675 547.664C866.73 558.655 880.395 568.609 896.027 577.13C896.818 530.166 906.351 479.293 912.325 452.753C917.416 430.14 927.646 410.685 940.706 396.119Z" fill="url(#paint130_linear)"/>
<path d="M1055.64 421.991C1038.93 413.354 1020.12 406.368 999.849 401.805C979.49 397.222 959.499 395.473 940.793 396.139C927.646 410.685 917.416 430.14 912.326 452.753C906.378 479.174 896.932 530.067 896.027 577.13C913.527 586.696 933.564 594.333 955.402 599.249C977.152 604.145 998.528 605.831 1018.53 604.706C1037.94 561.933 1051.12 511.883 1057.1 485.343C1062.19 462.73 1061.28 440.768 1055.64 421.991Z" fill="url(#paint131_linear)"/>
<path d="M1055.64 421.991C1038.93 413.354 1020.12 406.368 999.849 401.805C979.49 397.222 959.499 395.473 940.793 396.139C927.646 410.685 917.416 430.14 912.326 452.753C906.378 479.174 896.932 530.067 896.027 577.13C913.527 586.696 933.564 594.333 955.402 599.249C977.152 604.145 998.528 605.831 1018.53 604.706C1037.94 561.933 1051.12 511.883 1057.1 485.343C1062.19 462.73 1061.28 440.768 1055.64 421.991Z" fill="url(#paint132_linear)"/>
<path d="M1055.64 421.991C1038.93 413.354 1020.12 406.368 999.849 401.805C979.49 397.222 959.499 395.473 940.793 396.139C927.646 410.685 917.416 430.14 912.326 452.753C906.378 479.174 896.932 530.067 896.027 577.13C913.527 586.696 933.564 594.333 955.402 599.249C977.152 604.145 998.528 605.831 1018.53 604.706C1037.94 561.933 1051.12 511.883 1057.1 485.343C1062.19 462.73 1061.28 440.768 1055.64 421.991Z" fill="url(#paint133_linear)"/>
<path d="M1006.92 370.386C922.616 351.407 844.38 380.187 832.109 434.695C819.839 489.204 878.196 548.732 962.501 567.71C1046.81 586.688 1125.04 557.909 1137.31 503.4C1149.58 448.892 1091.23 389.364 1006.92 370.386ZM967.403 545.931C901.63 531.124 856.127 484.743 865.692 442.255C875.257 399.767 936.332 377.378 1002.02 392.165C1067.79 406.972 1113.29 453.353 1103.73 495.841C1094.16 538.328 1033.09 560.718 967.403 545.931Z" fill="url(#paint134_linear)"/>
<path d="M964.939 556.88C1039.99 573.776 1109.69 548.148 1120.61 499.64C1131.53 451.132 1079.54 398.111 1004.48 381.216C929.429 364.32 859.734 389.947 848.814 438.456C837.894 486.964 889.885 539.984 964.939 556.88Z" fill="url(#paint135_radial)"/>
<path d="M968.047 543.074C906.972 529.326 866.435 486.063 875.785 444.527C885.135 402.991 940.3 381.273 1001.38 395.021C1062.45 408.77 1102.99 452.033 1093.64 493.569C1084.31 534.985 1029.12 556.823 968.047 543.074ZM998.322 408.589C944.641 396.505 892.984 414.011 885.616 446.74C878.249 479.469 917.334 517.403 971.101 529.507C1024.78 541.591 1076.44 524.084 1083.81 491.355C1091.17 458.627 1052 420.673 998.322 408.589Z" fill="url(#paint136_radial)"/>
<path d="M973.351 519.51C932.634 510.344 905.775 481.039 912.151 452.714C918.528 424.389 955.354 409.42 996.07 418.586C1036.79 427.752 1063.65 457.057 1057.27 485.382C1050.89 513.707 1014.07 528.676 973.351 519.51ZM993.043 432.035C956.067 423.711 925.921 437.432 921.982 454.927C918.044 472.422 939.403 497.737 976.379 506.061C1013.35 514.385 1043.5 500.664 1047.44 483.169C1051.38 465.674 1030.02 440.358 993.043 432.035Z" fill="url(#paint137_radial)"/>
<path d="M977.665 500.349C953.217 494.845 937.713 477.225 941.732 459.373C945.75 441.521 967.222 432.224 991.757 437.747C1016.2 443.251 1031.71 460.871 1027.69 478.723C1023.67 496.575 1002.11 505.852 977.665 500.349ZM988.729 451.196C968.545 446.652 953.284 454.346 951.65 461.606C950.016 468.865 960.508 482.356 980.692 486.9C1000.88 491.444 1016.14 483.75 1017.77 476.49C1019.41 469.23 1008.91 455.74 988.729 451.196Z" fill="url(#paint138_radial)"/>
<defs>
<linearGradient id="paint0_linear" x1="415.971" y1="182.749" x2="847.045" y2="182.749" gradientUnits="userSpaceOnUse">
<stop stop-color="#9D1B3C"/>
<stop offset="1" stop-color="#D81F48"/>
</linearGradient>
<linearGradient id="paint1_linear" x1="464.315" y1="182.749" x2="798.701" y2="182.749" gradientUnits="userSpaceOnUse">
<stop stop-color="#BC2149"/>
<stop offset="1" stop-color="#EE2B54"/>
</linearGradient>
<linearGradient id="paint2_linear" x1="529.304" y1="182.749" x2="733.712" y2="182.749" gradientUnits="userSpaceOnUse">
<stop stop-color="#9D1B3C"/>
<stop offset="1" stop-color="#D81F48"/>
</linearGradient>
<linearGradient id="paint3_linear" x1="415.971" y1="124.819" x2="847.045" y2="124.819" gradientUnits="userSpaceOnUse">
<stop stop-color="#9D1B3C"/>
<stop offset="1" stop-color="#D81F48"/>
</linearGradient>
<radialGradient id="paint4_radial" cx="0" cy="0" r="1" gradientUnits="userSpaceOnUse" gradientTransform="translate(631.508 125.001) scale(226.625 122.831)">
<stop stop-color="#E2BDD1"/>
<stop offset="0.215" stop-color="#E1B9CF"/>
<stop offset="0.4772" stop-color="#E1AEC8"/>
<stop offset="0.7629" stop-color="#DF9CBD"/>
<stop offset="1" stop-color="#E2BDD1"/>
</radialGradient>
<radialGradient id="paint5_radial" cx="0" cy="0" r="1" gradientUnits="userSpaceOnUse" gradientTransform="translate(631.508 125.001) scale(116.732 63.2688)">
<stop stop-color="#E2BDD1"/>
<stop offset="0.215" stop-color="#E1B9CF"/>
<stop offset="0.4772" stop-color="#E1AEC8"/>
<stop offset="0.7629" stop-color="#DF9CBD"/>
<stop offset="1" stop-color="#E2BDD1"/>
</radialGradient>
<radialGradient id="paint6_radial" cx="0" cy="0" r="1" gradientUnits="userSpaceOnUse" gradientTransform="translate(631.508 125.001) scale(76.5982 41.5163)">
<stop stop-color="#E2BDD1"/>
<stop offset="0.215" stop-color="#E1B9CF"/>
<stop offset="0.4772" stop-color="#E1AEC8"/>
<stop offset="0.7629" stop-color="#DF9CBD"/>
<stop offset="1" stop-color="#E2BDD1"/>
</radialGradient>
<radialGradient id="paint7_radial" cx="0" cy="0" r="1" gradientUnits="userSpaceOnUse" gradientTransform="translate(631.508 125.001) scale(43.8753 23.7804)">
<stop stop-color="#E2BDD1"/>
<stop offset="0.215" stop-color="#E1B9CF"/>
<stop offset="0.4772" stop-color="#E1AEC8"/>
<stop offset="0.7629" stop-color="#DF9CBD"/>
<stop offset="1" stop-color="#E2BDD1"/>
</radialGradient>
<linearGradient id="paint8_linear" x1="-0.0118023" y1="173.519" x2="468.255" y2="173.519" gradientUnits="userSpaceOnUse">
<stop stop-color="#9D1B3C"/>
<stop offset="1" stop-color="#D81F48"/>
</linearGradient>
<linearGradient id="paint9_linear" x1="52.5033" y1="173.519" x2="415.74" y2="173.519" gradientUnits="userSpaceOnUse">
<stop stop-color="#BC2149"/>
<stop offset="1" stop-color="#EE2B54"/>
</linearGradient>
<linearGradient id="paint10_linear" x1="123.099" y1="173.519" x2="345.144" y2="173.519" gradientUnits="userSpaceOnUse">
<stop stop-color="#9D1B3C"/>
<stop offset="1" stop-color="#D81F48"/>
</linearGradient>
<linearGradient id="paint11_linear" x1="-0.0119" y1="110.59" x2="468.255" y2="110.59" gradientUnits="userSpaceOnUse">
<stop stop-color="#9D1B3C"/>
<stop offset="1" stop-color="#D81F48"/>
</linearGradient>
<radialGradient id="paint12_radial" cx="0" cy="0" r="1" gradientUnits="userSpaceOnUse" gradientTransform="translate(234.122 110.772) scale(246.178 133.429)">
<stop stop-color="#E2BDD1"/>
<stop offset="0.215" stop-color="#E1B9CF"/>
<stop offset="0.4772" stop-color="#E1AEC8"/>
<stop offset="0.7629" stop-color="#DF9CBD"/>
<stop offset="1" stop-color="#E2BDD1"/>
</radialGradient>
<radialGradient id="paint13_radial" cx="0" cy="0" r="1" gradientUnits="userSpaceOnUse" gradientTransform="translate(234.122 110.772) scale(126.641 68.6394)">
<stop stop-color="#E2BDD1"/>
<stop offset="0.215" stop-color="#E1B9CF"/>
<stop offset="0.4772" stop-color="#E1AEC8"/>
<stop offset="0.7629" stop-color="#DF9CBD"/>
<stop offset="1" stop-color="#E2BDD1"/>
</radialGradient>
<radialGradient id="paint14_radial" cx="0" cy="0" r="1" gradientUnits="userSpaceOnUse" gradientTransform="translate(234.122 110.772) scale(83.0443 45.01)">
<stop stop-color="#E2BDD1"/>
<stop offset="0.215" stop-color="#E1B9CF"/>
<stop offset="0.4772" stop-color="#E1AEC8"/>
<stop offset="0.7629" stop-color="#DF9CBD"/>
<stop offset="1" stop-color="#E2BDD1"/>
</radialGradient>
<radialGradient id="paint15_radial" cx="0" cy="0" r="1" gradientUnits="userSpaceOnUse" gradientTransform="translate(234.122 110.771) scale(47.4976 25.7437)">
<stop stop-color="#E2BDD1"/>
<stop offset="0.215" stop-color="#E1B9CF"/>
<stop offset="0.4772" stop-color="#E1AEC8"/>
<stop offset="0.7629" stop-color="#DF9CBD"/>
<stop offset="1" stop-color="#E2BDD1"/>
</radialGradient>
<linearGradient id="paint16_linear" x1="256.523" y1="329.06" x2="631.256" y2="391.711" gradientUnits="userSpaceOnUse">
<stop stop-color="#9D1B3C"/>
<stop offset="1" stop-color="#D81F48"/>
</linearGradient>
<linearGradient id="paint17_linear" x1="298.548" y1="336.086" x2="589.23" y2="384.685" gradientUnits="userSpaceOnUse">
<stop stop-color="#BC2149"/>
<stop offset="1" stop-color="#EE2B54"/>
</linearGradient>
<linearGradient id="paint18_linear" x1="355.043" y1="345.531" x2="532.736" y2="375.24" gradientUnits="userSpaceOnUse">
<stop stop-color="#9D1B3C"/>
<stop offset="1" stop-color="#D81F48"/>
</linearGradient>
<linearGradient id="paint19_linear" x1="264.943" y1="278.701" x2="639.676" y2="341.352" gradientUnits="userSpaceOnUse">
<stop stop-color="#9D1B3C"/>
<stop offset="1" stop-color="#D81F48"/>
</linearGradient>
<radialGradient id="paint20_radial" cx="0" cy="0" r="1" gradientUnits="userSpaceOnUse" gradientTransform="translate(452.3 310.328) rotate(9.49152) scale(199.737 108.263)">
<stop stop-color="#E2BDD1"/>
<stop offset="0.215" stop-color="#E1B9CF"/>
<stop offset="0.4772" stop-color="#E1AEC8"/>
<stop offset="0.7629" stop-color="#DF9CBD"/>
<stop offset="1" stop-color="#E2BDD1"/>
</radialGradient>
<radialGradient id="paint21_radial" cx="0" cy="0" r="1" gradientUnits="userSpaceOnUse" gradientTransform="translate(452.301 310.328) rotate(9.49152) scale(103.107 55.8863)">
<stop stop-color="#E2BDD1"/>
<stop offset="0.215" stop-color="#E1B9CF"/>
<stop offset="0.4772" stop-color="#E1AEC8"/>
<stop offset="0.7629" stop-color="#DF9CBD"/>
<stop offset="1" stop-color="#E2BDD1"/>
</radialGradient>
<radialGradient id="paint22_radial" cx="0" cy="0" r="1" gradientUnits="userSpaceOnUse" gradientTransform="translate(452.3 310.328) rotate(9.49153) scale(67.7346 36.7139)">
<stop stop-color="#E2BDD1"/>
<stop offset="0.215" stop-color="#E1B9CF"/>
<stop offset="0.4772" stop-color="#E1AEC8"/>
<stop offset="0.7629" stop-color="#DF9CBD"/>
<stop offset="1" stop-color="#E2BDD1"/>
</radialGradient>
<radialGradient id="paint23_radial" cx="0" cy="0" r="1" gradientUnits="userSpaceOnUse" gradientTransform="translate(452.3 310.328) rotate(9.49153) scale(38.8944 21.0817)">
<stop stop-color="#E2BDD1"/>
<stop offset="0.215" stop-color="#E1B9CF"/>
<stop offset="0.4772" stop-color="#E1AEC8"/>
<stop offset="0.7629" stop-color="#DF9CBD"/>
<stop offset="1" stop-color="#E2BDD1"/>
</radialGradient>
<radialGradient id="paint24_radial" cx="0" cy="0" r="1" gradientUnits="userSpaceOnUse" gradientTransform="translate(998.728 355.013) scale(174.157 94.393)">
<stop stop-color="#E2BDD1"/>
<stop offset="0.215" stop-color="#E1B9CF"/>
<stop offset="0.4772" stop-color="#E1AEC8"/>
<stop offset="0.7629" stop-color="#DF9CBD"/>
<stop offset="1" stop-color="#E2BDD1"/>
</radialGradient>
<linearGradient id="paint25_linear" x1="823.289" y1="409.126" x2="1174.17" y2="409.126" gradientUnits="userSpaceOnUse">
<stop stop-color="#9D1B3C"/>
<stop offset="1" stop-color="#D81F48"/>
</linearGradient>
<linearGradient id="paint26_linear" x1="823.289" y1="409.122" x2="1174.17" y2="409.122" gradientUnits="userSpaceOnUse">
<stop stop-color="#9D1B3C"/>
<stop offset="1" stop-color="#D81F48"/>
</linearGradient>
<linearGradient id="paint27_linear" x1="823.289" y1="407.652" x2="1174.17" y2="407.652" gradientUnits="userSpaceOnUse">
<stop stop-color="#9D1B3C"/>
<stop offset="1" stop-color="#D81F48"/>
</linearGradient>
<linearGradient id="paint28_linear" x1="862.639" y1="407.652" x2="1134.82" y2="407.652" gradientUnits="userSpaceOnUse">
<stop stop-color="#BC2149"/>
<stop offset="1" stop-color="#EE2B54"/>
</linearGradient>
<linearGradient id="paint29_linear" x1="823.289" y1="407.654" x2="1174.17" y2="407.654" gradientUnits="userSpaceOnUse">
<stop stop-color="#9D1B3C"/>
<stop offset="1" stop-color="#D81F48"/>
</linearGradient>
<linearGradient id="paint30_linear" x1="862.639" y1="407.654" x2="1134.82" y2="407.654" gradientUnits="userSpaceOnUse">
<stop stop-color="#BC2149"/>
<stop offset="1" stop-color="#EE2B54"/>
</linearGradient>
<linearGradient id="paint31_linear" x1="823.289" y1="408.089" x2="1174.17" y2="408.089" gradientUnits="userSpaceOnUse">
<stop stop-color="#9D1B3C"/>
<stop offset="1" stop-color="#D81F48"/>
</linearGradient>
<linearGradient id="paint32_linear" x1="862.639" y1="408.089" x2="1134.82" y2="408.089" gradientUnits="userSpaceOnUse">
<stop stop-color="#BC2149"/>
<stop offset="1" stop-color="#EE2B54"/>
</linearGradient>
<linearGradient id="paint33_linear" x1="915.538" y1="408.089" x2="1081.92" y2="408.089" gradientUnits="userSpaceOnUse">
<stop stop-color="#9D1B3C"/>
<stop offset="1" stop-color="#D81F48"/>
</linearGradient>
<linearGradient id="paint34_linear" x1="823.289" y1="381.671" x2="1174.17" y2="381.671" gradientUnits="userSpaceOnUse">
<stop stop-color="#9D1B3C"/>
<stop offset="1" stop-color="#D81F48"/>
</linearGradient>
<radialGradient id="paint35_radial" cx="0" cy="0" r="1" gradientUnits="userSpaceOnUse" gradientTransform="translate(998.728 381.853) scale(184.464 99.9793)">
<stop stop-color="#E2BDD1"/>
<stop offset="0.215" stop-color="#E1B9CF"/>
<stop offset="0.4772" stop-color="#E1AEC8"/>
<stop offset="0.7629" stop-color="#DF9CBD"/>
<stop offset="1" stop-color="#E2BDD1"/>
</radialGradient>
<radialGradient id="paint36_radial" cx="0" cy="0" r="1" gradientUnits="userSpaceOnUse" gradientTransform="translate(998.729 381.853) scale(98.8434 53.5731)">
<stop stop-color="#E2BDD1"/>
<stop offset="0.215" stop-color="#E1B9CF"/>
<stop offset="0.4772" stop-color="#E1AEC8"/>
<stop offset="0.7629" stop-color="#DF9CBD"/>
<stop offset="1" stop-color="#E2BDD1"/>
</radialGradient>
<radialGradient id="paint37_radial" cx="0" cy="0" r="1" gradientUnits="userSpaceOnUse" gradientTransform="translate(998.729 381.853) scale(66.1844 35.872)">
<stop stop-color="#E2BDD1"/>
<stop offset="0.215" stop-color="#E1B9CF"/>
<stop offset="0.4772" stop-color="#E1AEC8"/>
<stop offset="0.7629" stop-color="#DF9CBD"/>
<stop offset="1" stop-color="#E2BDD1"/>
</radialGradient>
<radialGradient id="paint38_radial" cx="0" cy="0" r="1" gradientUnits="userSpaceOnUse" gradientTransform="translate(998.728 381.852) scale(39.566 21.4448)">
<stop stop-color="#E2BDD1"/>
<stop offset="0.215" stop-color="#E1B9CF"/>
<stop offset="0.4772" stop-color="#E1AEC8"/>
<stop offset="0.7629" stop-color="#DF9CBD"/>
<stop offset="1" stop-color="#E2BDD1"/>
</radialGradient>
<linearGradient id="paint39_linear" x1="823.289" y1="409.126" x2="1174.17" y2="409.126" gradientUnits="userSpaceOnUse">
<stop stop-color="#9D1B3C"/>
<stop offset="1" stop-color="#D81F48"/>
</linearGradient>
<linearGradient id="paint40_linear" x1="823.289" y1="409.122" x2="1174.17" y2="409.122" gradientUnits="userSpaceOnUse">
<stop stop-color="#9D1B3C"/>
<stop offset="1" stop-color="#D81F48"/>
</linearGradient>
<linearGradient id="paint41_linear" x1="823.289" y1="407.652" x2="1174.17" y2="407.652" gradientUnits="userSpaceOnUse">
<stop stop-color="#9D1B3C"/>
<stop offset="1" stop-color="#D81F48"/>
</linearGradient>
<linearGradient id="paint42_linear" x1="862.639" y1="407.652" x2="1134.82" y2="407.652" gradientUnits="userSpaceOnUse">
<stop stop-color="#BC2149"/>
<stop offset="1" stop-color="#EE2B54"/>
</linearGradient>
<linearGradient id="paint43_linear" x1="823.289" y1="407.654" x2="1174.17" y2="407.654" gradientUnits="userSpaceOnUse">
<stop stop-color="#9D1B3C"/>
<stop offset="1" stop-color="#D81F48"/>
</linearGradient>
<linearGradient id="paint44_linear" x1="862.639" y1="407.654" x2="1134.82" y2="407.654" gradientUnits="userSpaceOnUse">
<stop stop-color="#BC2149"/>
<stop offset="1" stop-color="#EE2B54"/>
</linearGradient>
<linearGradient id="paint45_linear" x1="823.289" y1="408.089" x2="1174.17" y2="408.089" gradientUnits="userSpaceOnUse">
<stop stop-color="#9D1B3C"/>
<stop offset="1" stop-color="#D81F48"/>
</linearGradient>
<linearGradient id="paint46_linear" x1="862.639" y1="408.089" x2="1134.82" y2="408.089" gradientUnits="userSpaceOnUse">
<stop stop-color="#BC2149"/>
<stop offset="1" stop-color="#EE2B54"/>
</linearGradient>
<linearGradient id="paint47_linear" x1="915.538" y1="408.089" x2="1081.92" y2="408.089" gradientUnits="userSpaceOnUse">
<stop stop-color="#9D1B3C"/>
<stop offset="1" stop-color="#D81F48"/>
</linearGradient>
<linearGradient id="paint48_linear" x1="823.289" y1="381.671" x2="1174.17" y2="381.671" gradientUnits="userSpaceOnUse">
<stop stop-color="#9D1B3C"/>
<stop offset="1" stop-color="#D81F48"/>
</linearGradient>
<radialGradient id="paint49_radial" cx="0" cy="0" r="1" gradientUnits="userSpaceOnUse" gradientTransform="translate(998.728 381.853) scale(184.464 99.9793)">
<stop stop-color="#E2BDD1"/>
<stop offset="0.215" stop-color="#E1B9CF"/>
<stop offset="0.4772" stop-color="#E1AEC8"/>
<stop offset="0.7629" stop-color="#DF9CBD"/>
<stop offset="1" stop-color="#E2BDD1"/>
</radialGradient>
<radialGradient id="paint50_radial" cx="0" cy="0" r="1" gradientUnits="userSpaceOnUse" gradientTransform="translate(998.729 381.853) scale(98.8434 53.5731)">
<stop stop-color="#E2BDD1"/>
<stop offset="0.215" stop-color="#E1B9CF"/>
<stop offset="0.4772" stop-color="#E1AEC8"/>
<stop offset="0.7629" stop-color="#DF9CBD"/>
<stop offset="1" stop-color="#E2BDD1"/>
</radialGradient>
<radialGradient id="paint51_radial" cx="0" cy="0" r="1" gradientUnits="userSpaceOnUse" gradientTransform="translate(998.729 381.853) scale(66.1844 35.872)">
<stop stop-color="#E2BDD1"/>
<stop offset="0.215" stop-color="#E1B9CF"/>
<stop offset="0.4772" stop-color="#E1AEC8"/>
<stop offset="0.7629" stop-color="#DF9CBD"/>
<stop offset="1" stop-color="#E2BDD1"/>
</radialGradient>
<radialGradient id="paint52_radial" cx="0" cy="0" r="1" gradientUnits="userSpaceOnUse" gradientTransform="translate(998.728 381.852) scale(39.566 21.4448)">
<stop stop-color="#E2BDD1"/>
<stop offset="0.215" stop-color="#E1B9CF"/>
<stop offset="0.4772" stop-color="#E1AEC8"/>
<stop offset="0.7629" stop-color="#DF9CBD"/>
<stop offset="1" stop-color="#E2BDD1"/>
</radialGradient>
<radialGradient id="paint53_radial" cx="0" cy="0" r="1" gradientUnits="userSpaceOnUse" gradientTransform="translate(808.124 351.266) rotate(-8.216) scale(213.954 115.959)">
<stop stop-color="#E2BDD1"/>
<stop offset="0.215" stop-color="#E1B9CF"/>
<stop offset="0.4772" stop-color="#E1AEC8"/>
<stop offset="0.7629" stop-color="#DF9CBD"/>
<stop offset="1" stop-color="#E2BDD1"/>
</radialGradient>
<linearGradient id="paint54_linear" x1="604.343" y1="448.32" x2="1031.02" y2="386.713" gradientUnits="userSpaceOnUse">
<stop stop-color="#9D1B3C"/>
<stop offset="1" stop-color="#D81F48"/>
</linearGradient>
<linearGradient id="paint55_linear" x1="604.365" y1="448.299" x2="1030.99" y2="386.699" gradientUnits="userSpaceOnUse">
<stop stop-color="#9D1B3C"/>
<stop offset="1" stop-color="#D81F48"/>
</linearGradient>
<linearGradient id="paint56_linear" x1="604.12" y1="446.519" x2="1030.76" y2="384.918" gradientUnits="userSpaceOnUse">
<stop stop-color="#9D1B3C"/>
<stop offset="1" stop-color="#D81F48"/>
</linearGradient>
<linearGradient id="paint57_linear" x1="651.967" y1="439.611" x2="982.911" y2="391.827" gradientUnits="userSpaceOnUse">
<stop stop-color="#BC2149"/>
<stop offset="1" stop-color="#EE2B54"/>
</linearGradient>
<linearGradient id="paint58_linear" x1="604.107" y1="446.517" x2="1030.77" y2="384.912" gradientUnits="userSpaceOnUse">
<stop stop-color="#9D1B3C"/>
<stop offset="1" stop-color="#D81F48"/>
</linearGradient>
<linearGradient id="paint59_linear" x1="651.957" y1="439.608" x2="982.92" y2="391.821" gradientUnits="userSpaceOnUse">
<stop stop-color="#BC2149"/>
<stop offset="1" stop-color="#EE2B54"/>
</linearGradient>
<linearGradient id="paint60_linear" x1="604.185" y1="447.049" x2="1030.84" y2="385.446" gradientUnits="userSpaceOnUse">
<stop stop-color="#9D1B3C"/>
<stop offset="1" stop-color="#D81F48"/>
</linearGradient>
<linearGradient id="paint61_linear" x1="652.033" y1="440.14" x2="982.987" y2="392.355" gradientUnits="userSpaceOnUse">
<stop stop-color="#BC2149"/>
<stop offset="1" stop-color="#EE2B54"/>
</linearGradient>
<linearGradient id="paint62_linear" x1="716.355" y1="430.853" x2="918.666" y2="401.642" gradientUnits="userSpaceOnUse">
<stop stop-color="#9D1B3C"/>
<stop offset="1" stop-color="#D81F48"/>
</linearGradient>
<linearGradient id="paint63_linear" x1="599.547" y1="414.925" x2="1026.2" y2="353.322" gradientUnits="userSpaceOnUse">
<stop stop-color="#9D1B3C"/>
<stop offset="1" stop-color="#D81F48"/>
</linearGradient>
<radialGradient id="paint64_radial" cx="0" cy="0" r="1" gradientUnits="userSpaceOnUse" gradientTransform="translate(812.835 383.899) rotate(-8.216) scale(226.617 122.822)">
<stop stop-color="#E2BDD1"/>
<stop offset="0.215" stop-color="#E1B9CF"/>
<stop offset="0.4772" stop-color="#E1AEC8"/>
<stop offset="0.7629" stop-color="#DF9CBD"/>
<stop offset="1" stop-color="#E2BDD1"/>
</radialGradient>
<radialGradient id="paint65_radial" cx="0" cy="0" r="1" gradientUnits="userSpaceOnUse" gradientTransform="translate(812.835 383.898) rotate(-8.216) scale(121.431 65.8131)">
<stop stop-color="#E2BDD1"/>
<stop offset="0.215" stop-color="#E1B9CF"/>
<stop offset="0.4772" stop-color="#E1AEC8"/>
<stop offset="0.7629" stop-color="#DF9CBD"/>
<stop offset="1" stop-color="#E2BDD1"/>
</radialGradient>
<radialGradient id="paint66_radial" cx="0" cy="0" r="1" gradientUnits="userSpaceOnUse" gradientTransform="translate(812.835 383.898) rotate(-8.21599) scale(81.3086 44.0676)">
<stop stop-color="#E2BDD1"/>
<stop offset="0.215" stop-color="#E1B9CF"/>
<stop offset="0.4772" stop-color="#E1AEC8"/>
<stop offset="0.7629" stop-color="#DF9CBD"/>
<stop offset="1" stop-color="#E2BDD1"/>
</radialGradient>
<radialGradient id="paint67_radial" cx="0" cy="0" r="1" gradientUnits="userSpaceOnUse" gradientTransform="translate(812.834 383.898) rotate(-8.216) scale(48.6074 26.3442)">
<stop stop-color="#E2BDD1"/>
<stop offset="0.215" stop-color="#E1B9CF"/>
<stop offset="0.4772" stop-color="#E1AEC8"/>
<stop offset="0.7629" stop-color="#DF9CBD"/>
<stop offset="1" stop-color="#E2BDD1"/>
</radialGradient>
<linearGradient id="paint68_linear" x1="604.343" y1="448.32" x2="1031.02" y2="386.713" gradientUnits="userSpaceOnUse">
<stop stop-color="#9D1B3C"/>
<stop offset="1" stop-color="#D81F48"/>
</linearGradient>
<linearGradient id="paint69_linear" x1="604.365" y1="448.299" x2="1030.99" y2="386.699" gradientUnits="userSpaceOnUse">
<stop stop-color="#9D1B3C"/>
<stop offset="1" stop-color="#D81F48"/>
</linearGradient>
<linearGradient id="paint70_linear" x1="604.12" y1="446.519" x2="1030.76" y2="384.918" gradientUnits="userSpaceOnUse">
<stop stop-color="#9D1B3C"/>
<stop offset="1" stop-color="#D81F48"/>
</linearGradient>
<linearGradient id="paint71_linear" x1="651.967" y1="439.611" x2="982.911" y2="391.827" gradientUnits="userSpaceOnUse">
<stop stop-color="#BC2149"/>
<stop offset="1" stop-color="#EE2B54"/>
</linearGradient>
<linearGradient id="paint72_linear" x1="604.107" y1="446.517" x2="1030.77" y2="384.912" gradientUnits="userSpaceOnUse">
<stop stop-color="#9D1B3C"/>
<stop offset="1" stop-color="#D81F48"/>
</linearGradient>
<linearGradient id="paint73_linear" x1="651.957" y1="439.608" x2="982.92" y2="391.821" gradientUnits="userSpaceOnUse">
<stop stop-color="#BC2149"/>
<stop offset="1" stop-color="#EE2B54"/>
</linearGradient>
<linearGradient id="paint74_linear" x1="604.185" y1="447.049" x2="1030.84" y2="385.446" gradientUnits="userSpaceOnUse">
<stop stop-color="#9D1B3C"/>
<stop offset="1" stop-color="#D81F48"/>
</linearGradient>
<linearGradient id="paint75_linear" x1="652.033" y1="440.14" x2="982.987" y2="392.355" gradientUnits="userSpaceOnUse">
<stop stop-color="#BC2149"/>
<stop offset="1" stop-color="#EE2B54"/>
</linearGradient>
<linearGradient id="paint76_linear" x1="716.355" y1="430.853" x2="918.666" y2="401.642" gradientUnits="userSpaceOnUse">
<stop stop-color="#9D1B3C"/>
<stop offset="1" stop-color="#D81F48"/>
</linearGradient>
<linearGradient id="paint77_linear" x1="599.547" y1="414.925" x2="1026.2" y2="353.322" gradientUnits="userSpaceOnUse">
<stop stop-color="#9D1B3C"/>
<stop offset="1" stop-color="#D81F48"/>
</linearGradient>
<radialGradient id="paint78_radial" cx="0" cy="0" r="1" gradientUnits="userSpaceOnUse" gradientTransform="translate(812.835 383.899) rotate(-8.216) scale(226.617 122.822)">
<stop stop-color="#E2BDD1"/>
<stop offset="0.215" stop-color="#E1B9CF"/>
<stop offset="0.4772" stop-color="#E1AEC8"/>
<stop offset="0.7629" stop-color="#DF9CBD"/>
<stop offset="1" stop-color="#E2BDD1"/>
</radialGradient>
<radialGradient id="paint79_radial" cx="0" cy="0" r="1" gradientUnits="userSpaceOnUse" gradientTransform="translate(812.835 383.898) rotate(-8.216) scale(121.431 65.8131)">
<stop stop-color="#E2BDD1"/>
<stop offset="0.215" stop-color="#E1B9CF"/>
<stop offset="0.4772" stop-color="#E1AEC8"/>
<stop offset="0.7629" stop-color="#DF9CBD"/>
<stop offset="1" stop-color="#E2BDD1"/>
</radialGradient>
<radialGradient id="paint80_radial" cx="0" cy="0" r="1" gradientUnits="userSpaceOnUse" gradientTransform="translate(812.835 383.898) rotate(-8.21599) scale(81.3086 44.0676)">
<stop stop-color="#E2BDD1"/>
<stop offset="0.215" stop-color="#E1B9CF"/>
<stop offset="0.4772" stop-color="#E1AEC8"/>
<stop offset="0.7629" stop-color="#DF9CBD"/>
<stop offset="1" stop-color="#E2BDD1"/>
</radialGradient>
<radialGradient id="paint81_radial" cx="0" cy="0" r="1" gradientUnits="userSpaceOnUse" gradientTransform="translate(812.834 383.898) rotate(-8.216) scale(48.6074 26.3442)">
<stop stop-color="#E2BDD1"/>
<stop offset="0.215" stop-color="#E1B9CF"/>
<stop offset="0.4772" stop-color="#E1AEC8"/>
<stop offset="0.7629" stop-color="#DF9CBD"/>
<stop offset="1" stop-color="#E2BDD1"/>
</radialGradient>
<radialGradient id="paint82_radial" cx="0" cy="0" r="1" gradientUnits="userSpaceOnUse" gradientTransform="translate(861.579 262.235) scale(174.157 94.3929)">
<stop stop-color="#E2BDD1"/>
<stop offset="0.215" stop-color="#E1B9CF"/>
<stop offset="0.4772" stop-color="#E1AEC8"/>
<stop offset="0.7629" stop-color="#DF9CBD"/>
<stop offset="1" stop-color="#E2BDD1"/>
</radialGradient>
<linearGradient id="paint83_linear" x1="686.141" y1="316.351" x2="1037.02" y2="316.351" gradientUnits="userSpaceOnUse">
<stop stop-color="#9D1B3C"/>
<stop offset="1" stop-color="#D81F48"/>
</linearGradient>
<linearGradient id="paint84_linear" x1="686.14" y1="316.346" x2="1037.02" y2="316.346" gradientUnits="userSpaceOnUse">
<stop stop-color="#9D1B3C"/>
<stop offset="1" stop-color="#D81F48"/>
</linearGradient>
<linearGradient id="paint85_linear" x1="686.14" y1="314.877" x2="1037.02" y2="314.877" gradientUnits="userSpaceOnUse">
<stop stop-color="#9D1B3C"/>
<stop offset="1" stop-color="#D81F48"/>
</linearGradient>
<linearGradient id="paint86_linear" x1="725.491" y1="314.877" x2="997.668" y2="314.877" gradientUnits="userSpaceOnUse">
<stop stop-color="#BC2149"/>
<stop offset="1" stop-color="#EE2B54"/>
</linearGradient>
<linearGradient id="paint87_linear" x1="686.14" y1="314.879" x2="1037.02" y2="314.879" gradientUnits="userSpaceOnUse">
<stop stop-color="#9D1B3C"/>
<stop offset="1" stop-color="#D81F48"/>
</linearGradient>
<linearGradient id="paint88_linear" x1="725.49" y1="314.879" x2="997.668" y2="314.879" gradientUnits="userSpaceOnUse">
<stop stop-color="#BC2149"/>
<stop offset="1" stop-color="#EE2B54"/>
</linearGradient>
<linearGradient id="paint89_linear" x1="686.14" y1="315.314" x2="1037.02" y2="315.314" gradientUnits="userSpaceOnUse">
<stop stop-color="#9D1B3C"/>
<stop offset="1" stop-color="#D81F48"/>
</linearGradient>
<linearGradient id="paint90_linear" x1="725.49" y1="315.314" x2="997.667" y2="315.314" gradientUnits="userSpaceOnUse">
<stop stop-color="#BC2149"/>
<stop offset="1" stop-color="#EE2B54"/>
</linearGradient>
<linearGradient id="paint91_linear" x1="778.389" y1="315.314" x2="944.769" y2="315.314" gradientUnits="userSpaceOnUse">
<stop stop-color="#9D1B3C"/>
<stop offset="1" stop-color="#D81F48"/>
</linearGradient>
<linearGradient id="paint92_linear" x1="686.14" y1="288.895" x2="1037.02" y2="288.895" gradientUnits="userSpaceOnUse">
<stop stop-color="#9D1B3C"/>
<stop offset="1" stop-color="#D81F48"/>
</linearGradient>
<radialGradient id="paint93_radial" cx="0" cy="0" r="1" gradientUnits="userSpaceOnUse" gradientTransform="translate(861.579 289.074) scale(184.464 99.9793)">
<stop stop-color="#E2BDD1"/>
<stop offset="0.215" stop-color="#E1B9CF"/>
<stop offset="0.4772" stop-color="#E1AEC8"/>
<stop offset="0.7629" stop-color="#DF9CBD"/>
<stop offset="1" stop-color="#E2BDD1"/>
</radialGradient>
<radialGradient id="paint94_radial" cx="0" cy="0" r="1" gradientUnits="userSpaceOnUse" gradientTransform="translate(861.579 289.074) scale(98.8435 53.5732)">
<stop stop-color="#E2BDD1"/>
<stop offset="0.215" stop-color="#E1B9CF"/>
<stop offset="0.4772" stop-color="#E1AEC8"/>
<stop offset="0.7629" stop-color="#DF9CBD"/>
<stop offset="1" stop-color="#E2BDD1"/>
</radialGradient>
<radialGradient id="paint95_radial" cx="0" cy="0" r="1" gradientUnits="userSpaceOnUse" gradientTransform="translate(861.58 289.074) scale(66.1844 35.872)">
<stop stop-color="#E2BDD1"/>
<stop offset="0.215" stop-color="#E1B9CF"/>
<stop offset="0.4772" stop-color="#E1AEC8"/>
<stop offset="0.7629" stop-color="#DF9CBD"/>
<stop offset="1" stop-color="#E2BDD1"/>
</radialGradient>
<radialGradient id="paint96_radial" cx="0" cy="0" r="1" gradientUnits="userSpaceOnUse" gradientTransform="translate(861.579 289.074) scale(39.566 21.4448)">
<stop stop-color="#E2BDD1"/>
<stop offset="0.215" stop-color="#E1B9CF"/>
<stop offset="0.4772" stop-color="#E1AEC8"/>
<stop offset="0.7629" stop-color="#DF9CBD"/>
<stop offset="1" stop-color="#E2BDD1"/>
</radialGradient>
<linearGradient id="paint97_linear" x1="686.141" y1="316.351" x2="1037.02" y2="316.351" gradientUnits="userSpaceOnUse">
<stop stop-color="#9D1B3C"/>
<stop offset="1" stop-color="#D81F48"/>
</linearGradient>
<linearGradient id="paint98_linear" x1="686.14" y1="316.346" x2="1037.02" y2="316.346" gradientUnits="userSpaceOnUse">
<stop stop-color="#9D1B3C"/>
<stop offset="1" stop-color="#D81F48"/>
</linearGradient>
<linearGradient id="paint99_linear" x1="686.14" y1="314.877" x2="1037.02" y2="314.877" gradientUnits="userSpaceOnUse">
<stop stop-color="#9D1B3C"/>
<stop offset="1" stop-color="#D81F48"/>
</linearGradient>
<linearGradient id="paint100_linear" x1="725.491" y1="314.877" x2="997.668" y2="314.877" gradientUnits="userSpaceOnUse">
<stop stop-color="#BC2149"/>
<stop offset="1" stop-color="#EE2B54"/>
</linearGradient>
<linearGradient id="paint101_linear" x1="686.14" y1="314.879" x2="1037.02" y2="314.879" gradientUnits="userSpaceOnUse">
<stop stop-color="#9D1B3C"/>
<stop offset="1" stop-color="#D81F48"/>
</linearGradient>
<linearGradient id="paint102_linear" x1="725.49" y1="314.879" x2="997.668" y2="314.879" gradientUnits="userSpaceOnUse">
<stop stop-color="#BC2149"/>
<stop offset="1" stop-color="#EE2B54"/>
</linearGradient>
<linearGradient id="paint103_linear" x1="686.14" y1="315.314" x2="1037.02" y2="315.314" gradientUnits="userSpaceOnUse">
<stop stop-color="#9D1B3C"/>
<stop offset="1" stop-color="#D81F48"/>
</linearGradient>
<linearGradient id="paint104_linear" x1="725.49" y1="315.314" x2="997.667" y2="315.314" gradientUnits="userSpaceOnUse">
<stop stop-color="#BC2149"/>
<stop offset="1" stop-color="#EE2B54"/>
</linearGradient>
<linearGradient id="paint105_linear" x1="778.389" y1="315.314" x2="944.769" y2="315.314" gradientUnits="userSpaceOnUse">
<stop stop-color="#9D1B3C"/>
<stop offset="1" stop-color="#D81F48"/>
</linearGradient>
<linearGradient id="paint106_linear" x1="686.14" y1="288.895" x2="1037.02" y2="288.895" gradientUnits="userSpaceOnUse">
<stop stop-color="#9D1B3C"/>
<stop offset="1" stop-color="#D81F48"/>
</linearGradient>
<radialGradient id="paint107_radial" cx="0" cy="0" r="1" gradientUnits="userSpaceOnUse" gradientTransform="translate(861.579 289.074) scale(184.464 99.9793)">
<stop stop-color="#E2BDD1"/>
<stop offset="0.215" stop-color="#E1B9CF"/>
<stop offset="0.4772" stop-color="#E1AEC8"/>
<stop offset="0.7629" stop-color="#DF9CBD"/>
<stop offset="1" stop-color="#E2BDD1"/>
</radialGradient>
<radialGradient id="paint108_radial" cx="0" cy="0" r="1" gradientUnits="userSpaceOnUse" gradientTransform="translate(861.579 289.074) scale(98.8435 53.5732)">
<stop stop-color="#E2BDD1"/>
<stop offset="0.215" stop-color="#E1B9CF"/>
<stop offset="0.4772" stop-color="#E1AEC8"/>
<stop offset="0.7629" stop-color="#DF9CBD"/>
<stop offset="1" stop-color="#E2BDD1"/>
</radialGradient>
<radialGradient id="paint109_radial" cx="0" cy="0" r="1" gradientUnits="userSpaceOnUse" gradientTransform="translate(861.58 289.074) scale(66.1844 35.872)">
<stop stop-color="#E2BDD1"/>
<stop offset="0.215" stop-color="#E1B9CF"/>
<stop offset="0.4772" stop-color="#E1AEC8"/>
<stop offset="0.7629" stop-color="#DF9CBD"/>
<stop offset="1" stop-color="#E2BDD1"/>
</radialGradient>
<radialGradient id="paint110_radial" cx="0" cy="0" r="1" gradientUnits="userSpaceOnUse" gradientTransform="translate(861.579 289.074) scale(39.566 21.4448)">
<stop stop-color="#E2BDD1"/>
<stop offset="0.215" stop-color="#E1B9CF"/>
<stop offset="0.4772" stop-color="#E1AEC8"/>
<stop offset="0.7629" stop-color="#DF9CBD"/>
<stop offset="1" stop-color="#E2BDD1"/>
</radialGradient>
<linearGradient id="paint111_linear" x1="824.704" y1="467.354" x2="1129.97" y2="536.074" gradientUnits="userSpaceOnUse">
<stop stop-color="#9D1B3C"/>
<stop offset="1" stop-color="#D81F48"/>
</linearGradient>
<linearGradient id="paint112_linear" x1="824.705" y1="467.348" x2="1129.98" y2="536.069" gradientUnits="userSpaceOnUse">
<stop stop-color="#9D1B3C"/>
<stop offset="1" stop-color="#D81F48"/>
</linearGradient>
<linearGradient id="paint113_linear" x1="825.098" y1="465.6" x2="1130.37" y2="534.32" gradientUnits="userSpaceOnUse">
<stop stop-color="#9D1B3C"/>
<stop offset="1" stop-color="#D81F48"/>
</linearGradient>
<linearGradient id="paint114_linear" x1="859.334" y1="473.306" x2="1096.13" y2="526.613" gradientUnits="userSpaceOnUse">
<stop stop-color="#BC2149"/>
<stop offset="1" stop-color="#EE2B54"/>
</linearGradient>
<linearGradient id="paint115_linear" x1="825.098" y1="465.602" x2="1130.37" y2="534.322" gradientUnits="userSpaceOnUse">
<stop stop-color="#9D1B3C"/>
<stop offset="1" stop-color="#D81F48"/>
</linearGradient>
<linearGradient id="paint116_linear" x1="859.333" y1="473.309" x2="1096.13" y2="526.616" gradientUnits="userSpaceOnUse">
<stop stop-color="#BC2149"/>
<stop offset="1" stop-color="#EE2B54"/>
</linearGradient>
<linearGradient id="paint117_linear" x1="824.982" y1="466.119" x2="1130.25" y2="534.84" gradientUnits="userSpaceOnUse">
<stop stop-color="#9D1B3C"/>
<stop offset="1" stop-color="#D81F48"/>
</linearGradient>
<linearGradient id="paint118_linear" x1="859.217" y1="473.826" x2="1096.02" y2="527.133" gradientUnits="userSpaceOnUse">
<stop stop-color="#BC2149"/>
<stop offset="1" stop-color="#EE2B54"/>
</linearGradient>
<linearGradient id="paint119_linear" x1="905.24" y1="484.187" x2="1049.99" y2="516.773" gradientUnits="userSpaceOnUse">
<stop stop-color="#9D1B3C"/>
<stop offset="1" stop-color="#D81F48"/>
</linearGradient>
<linearGradient id="paint120_linear" x1="832.059" y1="434.678" x2="1137.33" y2="503.398" gradientUnits="userSpaceOnUse">
<stop stop-color="#9D1B3C"/>
<stop offset="1" stop-color="#D81F48"/>
</linearGradient>
<radialGradient id="paint121_radial" cx="0" cy="0" r="1" gradientUnits="userSpaceOnUse" gradientTransform="translate(984.646 469.251) rotate(12.6865) scale(164.503 121.967)">
<stop stop-color="#E2BDD1"/>
<stop offset="0.215" stop-color="#E1B9CF"/>
<stop offset="0.4772" stop-color="#E1AEC8"/>
<stop offset="0.7629" stop-color="#DF9CBD"/>
<stop offset="1" stop-color="#E2BDD1"/>
</radialGradient>
<radialGradient id="paint122_radial" cx="0" cy="0" r="1" gradientUnits="userSpaceOnUse" gradientTransform="translate(984.647 469.251) rotate(12.6865) scale(88.1479 65.355)">
<stop stop-color="#E2BDD1"/>
<stop offset="0.215" stop-color="#E1B9CF"/>
<stop offset="0.4772" stop-color="#E1AEC8"/>
<stop offset="0.7629" stop-color="#DF9CBD"/>
<stop offset="1" stop-color="#E2BDD1"/>
</radialGradient>
<radialGradient id="paint123_radial" cx="0" cy="0" r="1" gradientUnits="userSpaceOnUse" gradientTransform="translate(984.647 469.251) rotate(12.6865) scale(59.0227 43.7609)">
<stop stop-color="#E2BDD1"/>
<stop offset="0.215" stop-color="#E1B9CF"/>
<stop offset="0.4772" stop-color="#E1AEC8"/>
<stop offset="0.7629" stop-color="#DF9CBD"/>
<stop offset="1" stop-color="#E2BDD1"/>
</radialGradient>
<radialGradient id="paint124_radial" cx="0" cy="0" r="1" gradientUnits="userSpaceOnUse" gradientTransform="translate(984.646 469.251) rotate(12.6865) scale(35.2846 26.1609)">
<stop stop-color="#E2BDD1"/>
<stop offset="0.215" stop-color="#E1B9CF"/>
<stop offset="0.4772" stop-color="#E1AEC8"/>
<stop offset="0.7629" stop-color="#DF9CBD"/>
<stop offset="1" stop-color="#E2BDD1"/>
</radialGradient>
<linearGradient id="paint125_linear" x1="824.704" y1="467.354" x2="1129.97" y2="536.074" gradientUnits="userSpaceOnUse">
<stop stop-color="#9D1B3C"/>
<stop offset="1" stop-color="#D81F48"/>
</linearGradient>
<linearGradient id="paint126_linear" x1="824.705" y1="467.348" x2="1129.98" y2="536.069" gradientUnits="userSpaceOnUse">
<stop stop-color="#9D1B3C"/>
<stop offset="1" stop-color="#D81F48"/>
</linearGradient>
<linearGradient id="paint127_linear" x1="825.098" y1="465.6" x2="1130.37" y2="534.32" gradientUnits="userSpaceOnUse">
<stop stop-color="#9D1B3C"/>
<stop offset="1" stop-color="#D81F48"/>
</linearGradient>
<linearGradient id="paint128_linear" x1="859.334" y1="473.306" x2="1096.13" y2="526.613" gradientUnits="userSpaceOnUse">
<stop stop-color="#BC2149"/>
<stop offset="1" stop-color="#EE2B54"/>
</linearGradient>
<linearGradient id="paint129_linear" x1="825.098" y1="465.602" x2="1130.37" y2="534.322" gradientUnits="userSpaceOnUse">
<stop stop-color="#9D1B3C"/>
<stop offset="1" stop-color="#D81F48"/>
</linearGradient>
<linearGradient id="paint130_linear" x1="859.333" y1="473.309" x2="1096.13" y2="526.616" gradientUnits="userSpaceOnUse">
<stop stop-color="#BC2149"/>
<stop offset="1" stop-color="#EE2B54"/>
</linearGradient>
<linearGradient id="paint131_linear" x1="824.982" y1="466.119" x2="1130.25" y2="534.84" gradientUnits="userSpaceOnUse">
<stop stop-color="#9D1B3C"/>
<stop offset="1" stop-color="#D81F48"/>
</linearGradient>
<linearGradient id="paint132_linear" x1="859.217" y1="473.826" x2="1096.02" y2="527.133" gradientUnits="userSpaceOnUse">
<stop stop-color="#BC2149"/>
<stop offset="1" stop-color="#EE2B54"/>
</linearGradient>
<linearGradient id="paint133_linear" x1="905.24" y1="484.187" x2="1049.99" y2="516.773" gradientUnits="userSpaceOnUse">
<stop stop-color="#9D1B3C"/>
<stop offset="1" stop-color="#D81F48"/>
</linearGradient>
<linearGradient id="paint134_linear" x1="832.059" y1="434.678" x2="1137.33" y2="503.398" gradientUnits="userSpaceOnUse">
<stop stop-color="#9D1B3C"/>
<stop offset="1" stop-color="#D81F48"/>
</linearGradient>
<radialGradient id="paint135_radial" cx="0" cy="0" r="1" gradientUnits="userSpaceOnUse" gradientTransform="translate(984.646 469.251) rotate(12.6865) scale(164.503 121.967)">
<stop stop-color="#E2BDD1"/>
<stop offset="0.215" stop-color="#E1B9CF"/>
<stop offset="0.4772" stop-color="#E1AEC8"/>
<stop offset="0.7629" stop-color="#DF9CBD"/>
<stop offset="1" stop-color="#E2BDD1"/>
</radialGradient>
<radialGradient id="paint136_radial" cx="0" cy="0" r="1" gradientUnits="userSpaceOnUse" gradientTransform="translate(984.647 469.251) rotate(12.6865) scale(88.1479 65.355)">
<stop stop-color="#E2BDD1"/>
<stop offset="0.215" stop-color="#E1B9CF"/>
<stop offset="0.4772" stop-color="#E1AEC8"/>
<stop offset="0.7629" stop-color="#DF9CBD"/>
<stop offset="1" stop-color="#E2BDD1"/>
</radialGradient>
<radialGradient id="paint137_radial" cx="0" cy="0" r="1" gradientUnits="userSpaceOnUse" gradientTransform="translate(984.647 469.251) rotate(12.6865) scale(59.0227 43.7609)">
<stop stop-color="#E2BDD1"/>
<stop offset="0.215" stop-color="#E1B9CF"/>
<stop offset="0.4772" stop-color="#E1AEC8"/>
<stop offset="0.7629" stop-color="#DF9CBD"/>
<stop offset="1" stop-color="#E2BDD1"/>
</radialGradient>
<radialGradient id="paint138_radial" cx="0" cy="0" r="1" gradientUnits="userSpaceOnUse" gradientTransform="translate(984.646 469.251) rotate(12.6865) scale(35.2846 26.1609)">
<stop stop-color="#E2BDD1"/>
<stop offset="0.215" stop-color="#E1B9CF"/>
<stop offset="0.4772" stop-color="#E1AEC8"/>
<stop offset="0.7629" stop-color="#DF9CBD"/>
<stop offset="1" stop-color="#E2BDD1"/>
</radialGradient>
</defs>
</svg>
