<svg width="512" height="512" viewBox="0 0 512 512" fill="none" xmlns="http://www.w3.org/2000/svg">
  <g clip-path="url(#clip0_503_513)">
    <path d="M175.455 394.966C175.455 396.927 173.199 398.496 170.354 398.496C167.116 398.79 164.86 397.221 164.86 394.966C164.86 393.005 167.116 391.437 169.961 391.437C172.905 391.142 175.455 392.711 175.455 394.966ZM144.945 390.554C144.258 392.515 146.22 394.77 149.163 395.358C151.714 396.339 154.657 395.358 155.246 393.397C155.834 391.437 153.97 389.182 151.027 388.299C148.476 387.613 145.631 388.593 144.945 390.554ZM188.307 388.887C185.462 389.574 183.5 391.437 183.794 393.692C184.089 395.652 186.639 396.927 189.582 396.241C192.427 395.554 194.39 393.692 194.095 391.731C193.801 389.868 191.152 388.593 188.307 388.887ZM252.86 13.1914C116.789 13.1914 12.6992 116.429 12.6992 252.413C12.6992 361.142 81.1765 454.183 178.987 486.929C191.545 489.184 195.959 481.439 195.959 475.066C195.959 468.988 195.665 435.457 195.665 414.869C195.665 414.869 126.991 429.575 112.57 385.652C112.57 385.652 101.386 357.122 85.2969 349.769C85.2969 349.769 62.8308 334.376 86.8666 334.67C86.8666 334.67 111.295 336.631 124.735 359.965C146.22 397.809 182.225 386.927 196.254 380.456C198.51 364.769 204.887 353.887 211.95 347.416C157.11 341.337 101.779 333.396 101.779 239.08C101.779 212.118 109.234 198.588 124.931 181.333C122.381 174.96 114.042 148.685 127.482 114.763C147.986 108.39 195.174 141.234 195.174 141.234C214.795 135.744 235.888 132.9 256.784 132.9C277.681 132.9 298.773 135.744 318.394 141.234C318.394 141.234 365.583 108.292 386.087 114.763C399.527 148.783 391.188 174.96 388.637 181.333C404.334 198.686 413.948 212.216 413.948 239.08C413.948 333.69 356.165 341.239 301.324 347.416C310.35 355.161 318.002 369.867 318.002 392.907C318.002 425.947 317.707 466.831 317.707 474.87C317.707 481.243 322.22 488.988 334.68 486.733C432.785 454.183 499.3 361.142 499.3 252.413C499.3 116.429 388.932 13.1914 252.86 13.1914ZM108.057 351.337C106.782 352.318 107.076 354.573 108.744 356.436C110.314 358.004 112.57 358.691 113.845 357.416C115.121 356.436 114.826 354.181 113.159 352.318C111.589 350.749 109.333 350.063 108.057 351.337ZM97.4619 343.396C96.7752 344.671 97.7562 346.239 99.7183 347.22C101.288 348.2 103.25 347.906 103.937 346.533C104.624 345.259 103.642 343.69 101.68 342.71C99.7183 342.122 98.1486 342.416 97.4619 343.396ZM129.248 378.299C127.678 379.573 128.267 382.515 130.523 384.378C132.78 386.633 135.625 386.927 136.9 385.358C138.175 384.083 137.587 381.142 135.625 379.279C133.466 377.024 130.523 376.73 129.248 378.299ZM118.064 363.887C116.494 364.867 116.494 367.416 118.064 369.671C119.634 371.926 122.282 372.907 123.558 371.926C125.127 370.652 125.127 368.103 123.558 365.848C122.184 363.593 119.634 362.612 118.064 363.887Z" fill="black"/>
  </g>
  <defs>
    <clipPath id="clip0_503_513">
      <rect width="486.601" height="501.974" fill="white" transform="translate(12.6992 5.34766)"/>
    </clipPath>
  </defs>
</svg>
