<svg width="512" height="512" viewBox="0 0 512 512" fill="none" xmlns="http://www.w3.org/2000/svg">
  <path d="M32.0469 255.562C32.0469 289.211 65.0699 320.622 117.13 338.329C106.734 390.403 115.268 432.377 143.77 448.734C173.065 465.545 216.71 453.909 258.135 417.877C298.514 452.451 339.323 466.06 367.8 449.656C397.069 432.797 405.968 387.98 395.288 334.276C449.512 316.439 479.843 289.654 479.843 255.562C479.843 222.694 446.761 194.26 395.4 176.668C406.903 120.747 397.158 79.7918 367.476 62.7617C338.859 46.3425 297.575 60.6533 256.602 96.1321C213.975 58.4749 173.099 46.9781 143.448 64.0557C114.859 80.5223 106.701 123.26 117.13 176.298C66.8261 193.749 32.0469 222.827 32.0469 255.562Z" fill="white"/>
  <path d="M384.525 194.138C380.289 192.693 376.022 191.355 371.721 190.124C372.435 187.241 373.093 184.344 373.698 181.436C383.388 134.631 377.053 96.924 355.416 84.5117C334.671 72.6071 300.742 85.0196 266.475 114.69C263.098 117.62 259.796 120.635 256.573 123.731C254.414 121.672 252.217 119.654 249.983 117.676C214.071 85.9477 178.073 72.5791 156.459 85.0282C135.733 96.9663 129.594 132.415 138.318 176.773C139.186 181.166 140.167 185.536 141.258 189.879C136.164 191.318 131.245 192.852 126.539 194.485C84.4361 209.09 57.5469 231.981 57.5469 255.724C57.5469 280.247 86.4107 304.844 130.267 319.758C133.823 320.961 137.408 322.076 141.02 323.102C139.847 327.781 138.805 332.492 137.896 337.229C129.578 380.816 136.074 415.423 156.746 427.288C178.096 439.539 213.93 426.947 248.824 396.599C251.582 394.199 254.35 391.656 257.122 388.991C260.614 392.343 264.198 395.595 267.872 398.749C301.671 427.688 335.051 439.371 355.706 427.476C377.036 415.191 383.968 378.01 374.967 332.776C374.281 329.321 373.479 325.792 372.581 322.199C375.097 321.46 377.568 320.696 379.978 319.901C425.567 304.872 455.229 280.575 455.229 255.724C455.229 231.895 427.475 208.85 384.525 194.138Z" fill="#53C1DE"/>
  <path d="M374.634 303.857C372.459 304.573 370.231 305.265 367.954 305.935C362.923 290.082 356.127 273.223 347.819 255.808C355.751 238.804 362.281 222.162 367.172 206.41C371.241 207.584 375.19 208.818 378.993 210.123C415.795 222.726 438.241 241.364 438.241 255.724C438.241 271.02 414 290.879 374.637 303.857H374.634ZM358.301 336.059C362.281 356.062 362.851 374.146 360.212 388.284C357.844 400.985 353.082 409.454 347.194 412.846C334.659 420.066 307.857 410.682 278.954 385.936C275.64 383.099 272.301 380.068 268.953 376.863C280.159 364.667 291.358 350.492 302.288 334.748C321.514 333.051 339.677 330.275 356.151 326.487C356.959 329.745 357.68 332.937 358.301 336.059ZM193.126 411.601C180.881 415.905 171.129 416.024 165.235 412.645C152.69 405.446 147.476 377.655 154.589 340.381C155.435 335.977 156.403 331.596 157.493 327.244C173.782 330.829 191.813 333.408 211.085 334.963C222.086 350.369 233.609 364.527 245.222 376.928C242.754 379.304 240.227 381.618 237.645 383.871C222.215 397.292 206.753 406.812 193.127 411.601H193.126ZM135.762 303.762C116.37 297.167 100.356 288.597 89.3791 279.246C79.5159 270.84 74.5352 262.496 74.5352 255.724C74.5352 241.317 96.1252 222.938 132.133 210.447C136.652 208.886 141.217 207.457 145.82 206.162C150.798 222.267 157.326 239.107 165.203 256.135C157.223 273.418 150.602 290.525 145.579 306.82C142.282 305.881 139.009 304.861 135.762 303.762ZM154.992 173.526C147.517 135.52 152.48 106.852 164.971 99.6578C178.277 91.9945 207.695 102.922 238.703 130.316C240.684 132.067 242.675 133.901 244.669 135.797C233.116 148.141 221.699 162.195 210.793 177.51C192.089 179.235 174.185 182.006 157.725 185.716C156.711 181.676 155.8 177.611 154.992 173.525V173.526ZM326.534 215.672C322.646 208.991 318.614 202.393 314.441 195.884C327.13 197.477 339.287 199.596 350.703 202.19C347.276 213.119 343.002 224.547 337.974 236.263C334.298 229.324 330.484 222.459 326.534 215.672ZM256.579 147.877C264.414 156.323 272.262 165.755 279.982 175.987C264.323 175.25 248.638 175.247 232.979 175.977C240.705 165.839 248.62 156.421 256.579 147.877ZM186.175 215.788C182.274 222.521 178.531 229.344 174.95 236.251C170.003 224.575 165.77 213.096 162.313 202.011C173.66 199.484 185.76 197.42 198.367 195.852C194.147 202.402 190.082 209.049 186.175 215.788ZM198.73 316.802C185.705 315.355 173.422 313.396 162.079 310.939C165.591 299.658 169.917 287.931 174.969 276.006C178.566 282.918 182.325 289.745 186.244 296.481C190.243 303.352 194.406 310.128 198.73 316.802ZM257.049 364.766C248.997 356.12 240.966 346.56 233.122 336.273C240.735 336.571 248.499 336.721 256.389 336.721C264.495 336.721 272.509 336.541 280.395 336.191C272.651 346.662 264.832 356.24 257.049 364.766ZM338.136 275.398C343.45 287.454 347.931 299.116 351.491 310.207C339.959 312.825 327.511 314.933 314.393 316.499C318.597 309.868 322.667 303.155 326.602 296.363C330.603 289.461 334.448 282.471 338.136 275.398ZM311.885 287.919C305.861 298.332 299.498 308.547 292.807 318.548C281.008 319.386 268.815 319.819 256.389 319.819C244.014 319.819 231.976 319.436 220.383 318.688C213.518 308.71 207.035 298.478 200.947 288.012C194.888 277.602 189.229 266.967 183.981 256.13C189.215 245.289 194.858 234.649 200.896 224.23V224.234C206.933 213.813 213.365 203.625 220.179 193.69C232.006 192.8 244.132 192.334 256.391 192.334C268.704 192.334 280.846 192.804 292.669 193.7C299.414 203.62 305.806 213.773 311.831 224.141C317.89 234.536 323.607 245.125 328.975 255.89C323.663 266.765 317.963 277.448 311.887 287.919H311.885ZM346.931 99.1553C360.247 106.797 365.428 137.613 357.062 178.025C356.512 180.658 355.915 183.28 355.273 185.892C338.775 182.104 320.858 179.284 302.1 177.533C291.172 162.051 279.85 147.973 268.483 135.788C271.462 132.931 274.511 130.148 277.628 127.442C306.989 102.018 334.429 91.9805 346.931 99.1553Z" fill="white"/>
  <path d="M256.389 220.39C276.002 220.39 291.9 236.21 291.9 255.723C291.9 275.238 276.002 291.059 256.389 291.059C236.777 291.059 220.877 275.238 220.877 255.723C220.877 236.21 236.777 220.39 256.389 220.39Z" fill="#53C1DE"/>
</svg>
