<svg width="512" height="512" viewBox="0 0 512 512" fill="none" xmlns="http://www.w3.org/2000/svg">
  <rect width="512" height="512" fill="white"/>
  <path d="M0 256V512H256H512V256V2.11298e-05H256H0V256ZM412.607 235.601C425.61 238.852 435.525 244.622 444.627 254.05C449.341 259.088 456.33 268.272 456.899 270.466C457.062 271.116 434.794 286.07 421.303 294.441C420.815 294.766 418.865 292.653 416.67 289.402C410.088 279.812 403.18 275.667 392.615 274.936C377.092 273.879 367.096 282.006 367.177 295.578C367.177 299.561 367.746 301.917 369.371 305.168C372.785 312.239 379.124 316.465 399.035 325.079C435.688 340.846 451.373 351.248 461.125 366.039C472.015 382.537 474.453 408.869 467.058 428.455C458.931 449.747 438.776 464.213 410.413 469.008C401.636 470.552 380.83 470.309 371.403 468.602C350.842 464.945 331.337 454.786 319.309 441.458C314.596 436.257 305.412 422.684 305.981 421.709C306.225 421.384 308.338 420.084 310.695 418.702C312.97 417.402 321.585 412.444 329.712 407.731L344.422 399.197L347.51 403.749C351.817 410.331 361.244 419.352 366.933 422.359C383.269 430.974 405.699 429.755 416.752 419.84C421.465 415.533 423.416 411.063 423.416 404.48C423.416 398.547 422.684 395.947 419.596 391.477C415.614 385.788 407.487 380.993 384.406 370.997C357.994 359.619 346.616 352.549 336.213 341.333C330.199 334.832 324.51 324.429 322.154 315.733C320.203 308.5 319.716 290.377 321.26 283.063C326.705 257.544 345.966 239.746 373.76 234.464C382.781 232.757 403.749 233.407 412.607 235.601ZM292.409 256.975L292.571 277.943H259.251H225.93V372.622V467.302H202.362H178.794V372.622V277.943H145.473H112.152V257.382C112.152 246.004 112.396 236.495 112.721 236.251C112.965 235.926 153.519 235.764 202.687 235.845L292.165 236.089L292.409 256.975Z" fill="#007ACC"/>
</svg>
