<svg width="512" height="512" viewBox="0 0 512 512" fill="none" xmlns="http://www.w3.org/2000/svg">
  <path d="M182.249 407.603L93.9004 165.469L336.524 100.456L380.658 354.42L288.669 408.607L182.249 407.603Z" fill="#E44D26"/>
  <path d="M283.181 387.495L357.505 343.688L319.78 126.66L220.621 153.233L283.181 387.495Z" fill="#F16529"/>
  <path d="M451.918 225.724L463.223 264.687L376.675 289.182C376.675 289.182 376.675 341.327 334.675 362.056C292.68 382.785 260.054 365.206 260.054 365.206L254.83 350.129L317.129 333.162L330.918 279.753L290.781 240.207L233.086 257.686L228.076 243.969C228.076 243.97 255.033 184.287 334.685 218.231C334.685 218.231 359.785 233.92 365.414 247.756L451.918 225.724ZM463.223 222.798L477.013 218.818L488.106 258.607L473.671 262.992L463.223 222.798Z" fill="#EFEFEF"/>
  <path d="M468.079 221.041L477.012 218.817L488.105 258.607L473.67 262.992L469.892 249.668L475.65 247.41L468.079 221.041ZM442.374 228.161L451.917 225.724L463.222 264.686L376.674 289.182C376.674 289.182 375.742 334.68 345.623 355.283C315.554 375.866 281.666 375.248 260.043 365.209L257.633 358.256C257.633 358.256 316.482 372.118 345.623 327.823C363.195 298.62 362.887 277.567 362.887 277.567L449.733 254.017L442.374 228.161ZM228.064 243.945L278.863 229.177L290.759 240.181L233.075 257.66L228.064 243.945Z" fill="#BCBCBC"/>
  <path d="M48.9782 271.561L59.1765 310.821L146.024 287.52C146.024 287.52 172.673 332.303 219.357 328.574C266.056 324.846 285.08 293.028 285.08 293.028L281.861 277.401L219.68 294.76L180.543 255.966L194.819 201.384L253.328 186.83L250.619 172.469C250.619 172.469 196.981 135.011 145.87 204.993C145.87 204.993 132.343 231.328 134.549 246.098L48.9782 271.561ZM37.7773 274.847L23.8926 278.491L34.6893 318.349L49.3356 314.729L37.7773 274.847Z" fill="#EFEFEF"/>
  <path d="M32.709 275.811L23.8926 278.491L34.6893 318.349L49.3356 314.729L45.7922 301.332L39.6632 302.352L32.709 275.811ZM58.4492 268.762L48.9782 271.561L59.1765 310.821L146.024 287.52C146.024 287.52 170.082 326.114 206.475 328.385C242.833 330.632 271.614 312.756 285.08 293.028L283.613 285.824C283.613 285.824 240.113 327.907 192.436 304.786C162.426 288.704 151.952 270.433 151.952 270.433L65.2963 294.737L58.4492 268.762ZM250.619 172.482L199.448 185.817L194.832 201.386L253.339 186.832L250.619 172.482Z" fill="#BCBCBC"/>
</svg>
